<?xml version="1.0" encoding="UTF-8" standalone="no"?>
<svg
   xmlns:dc="http://purl.org/dc/elements/1.1/"
   xmlns:cc="http://creativecommons.org/ns#"
   xmlns:rdf="http://www.w3.org/1999/02/22-rdf-syntax-ns#"
   xmlns:svg="http://www.w3.org/2000/svg"
   xmlns="http://www.w3.org/2000/svg"
   viewBox="0 0 3333.3333 3333.3333"
   height="3333.3333"
   width="3333.3333"
   xml:space="preserve"
   id="svg2"
   version="1.1"><metadata
     id="metadata8"><rdf:RDF><cc:Work
         rdf:about=""><dc:format>image/svg+xml</dc:format><dc:type
           rdf:resource="http://purl.org/dc/dcmitype/StillImage" /></cc:Work></rdf:RDF></metadata><defs
     id="defs6" /><g
     transform="matrix(1.3333333,0,0,-1.3333333,0,3333.3333)"
     id="g10"><g
       transform="scale(0.1)"
       id="g12"><g
         transform="scale(1.53374)"
         id="g14"><path
           id="path16"
           style="fill:#ffffff;fill-opacity:1;fill-rule:nonzero;stroke:none"
           d="M 16300,0 H 0 V 16300 H 16300 V 0" /></g><g
         transform="scale(1.3508)"
         id="g18"><path
           id="path20"
           style="fill:#ffffff;fill-opacity:1;fill-rule:nonzero;stroke:none"
           d="M 16247.9,8525.74 H 8027.44 c -166.79,0 -302.04,-135.03 -302.04,-301.52 v -3490.3 c 0,-217.5 1887.17,-631.99 4275.2,-631.99 2387.9,0 4299.4,385.33 4299.4,602.75 0,10.44 -4.2,3337.57 -4.7,3774.05 -0.1,26.06 -21.3,47.01 -47.4,47.01" /></g><g
         transform="scale(1.35232)"
         id="g22"><path
           id="path24"
           style="fill:#000000;fill-opacity:1;fill-rule:nonzero;stroke:none"
           d="m 8018.45,8497.92 c -156.33,0 -283.44,-126.89 -283.44,-282.92 V 4728.54 c 0,-68.69 326.4,-226.35 1225.52,-379.05 514.38,-87.4 1591.67,-233.97 3026.57,-233.97 1444.4,0 2524,137.47 3038.9,219.4 850.3,135.25 1237.5,283.81 1237.5,364.56 0,6.36 -1.6,1246.38 -3,2340.35 l -1.8,1429.32 c 0,15.9 -13.1,28.77 -29,28.77 z M 11987.1,4079.07 c -1437.6,0 -2517.14,146.86 -3032.71,234.41 -607.1,103.08 -1255.84,266.28 -1255.84,415.06 V 8215 c 0,176.14 143.46,319.45 319.9,319.45 h 8211.25 c 36.1,0 65.4,-29.28 65.5,-65.22 l 1.8,-1429.32 c 1.4,-1094.05 3,-2334.07 3,-2340.43 0,-184.5 -970.7,-353.24 -1268.2,-400.57 -516.1,-82.08 -1597.8,-219.84 -3044.7,-219.84" /></g><g
         transform="scale(1.35202)"
         id="g26"><path
           id="path28"
           style="fill:#ffffff;fill-opacity:1;fill-rule:nonzero;stroke:none"
           d="m 16300,8484.06 c 0,-217.24 -1924.4,-616.79 -4310.2,-616.79 -2385.86,0 -4271.34,414.13 -4271.34,631.36 0,217.3 1875.71,378.84 4261.54,378.84 2385.9,0 4320,-176.11 4320,-393.41" /></g><g
         transform="scale(1.35353)"
         id="g30"><path
           id="path32"
           style="fill:#000000;fill-opacity:1;fill-rule:nonzero;stroke:none"
           d="M 11966.7,8849.4 C 10808,8849.4 9735.3,8811.13 8946.18,8741.6 7786.84,8639.5 7728.1,8513.38 7728.1,8489.15 c 0,-68.63 326.11,-226.22 1224.36,-378.71 513.99,-87.33 1590.24,-233.76 3023.94,-233.76 2476.8,0 4287.2,419.57 4287.2,597.92 0,24.45 -60.2,151.6 -1247.3,259.76 -814.5,74.18 -1897.5,115.04 -3049.6,115.04 z m 9.7,-1009.15 c -1436.3,0 -2514.9,146.73 -3030,234.21 -606.56,102.99 -1254.72,266.04 -1254.72,414.69 0,40.64 35.68,102.33 344.36,168.52 212.04,45.44 517.17,85.93 906.96,120.28 790.16,69.52 1863.9,107.87 3023.7,107.87 1153.1,0 2237.3,-40.93 3052.9,-115.18 849.7,-77.36 1280.4,-176.95 1280.4,-296.04 0,-185.3 -975.3,-358.7 -1274.3,-407.46 -519.8,-84.74 -1607.3,-226.89 -3049.3,-226.89" /></g><path
         id="path34"
         style="fill:#ffffff;fill-opacity:1;fill-rule:nonzero;stroke:none"
         d="m 11300.4,6802.7 c 0,-85.1 -62.5,-154 -139.6,-154 -77.1,0 -139.6,68.9 -139.6,154 0,85.1 62.5,154.1 139.6,154.1 77.1,0 139.6,-69 139.6,-154.1" /><path
         id="path36"
         style="fill:#ffffff;fill-opacity:1;fill-rule:nonzero;stroke:none"
         d="m 10793.4,9084.4 c 0,-85.1 -62.6,-154.1 -139.7,-154.1 -77.1,0 -139.6,69 -139.6,154.1 0,85.1 62.5,154.1 139.6,154.1 77.1,0 139.7,-69 139.7,-154.1" /><path
         id="path38"
         style="fill:#ffffff;fill-opacity:1;fill-rule:nonzero;stroke:none"
         d="m 13196.3,8314.1 c 0,-85.1 -62.6,-154.1 -139.7,-154.1 -77.1,0 -139.6,69 -139.6,154.1 0,85 62.5,154 139.6,154 77.1,0 139.7,-69 139.7,-154" /><g
         transform="scale(1.09946)"
         id="g40"><path
           id="path42"
           style="fill:#000000;fill-opacity:1;fill-rule:nonzero;stroke:none"
           d="m 16300,6194.04 c 0,-77.4 -56.8,-140.16 -127,-140.16 -70.1,0 -126.9,62.76 -126.9,140.16 0,77.4 56.8,140.07 126.9,140.07 70.2,0 127,-62.67 127,-140.07" /></g><path
         id="path44"
         style="fill:#ffffff;fill-opacity:1;fill-rule:nonzero;stroke:none"
         d="m 16120.9,8754.2 c 0,-85 -62.5,-154 -139.6,-154 -77.1,0 -139.6,69 -139.6,154 0,85.1 62.5,154.1 139.6,154.1 77.1,0 139.6,-69 139.6,-154.1" /><g
         transform="scale(1.33929)"
         id="g46"><path
           id="path48"
           style="fill:#000000;fill-opacity:1;fill-rule:nonzero;stroke:none"
           d="m 16300,4832.84 c 0,-63.54 -46.7,-115.06 -104.2,-115.06 -57.6,0 -104.3,51.52 -104.3,115.06 0,63.54 46.7,115.07 104.3,115.07 57.5,0 104.2,-51.53 104.2,-115.07" /></g><g
         transform="scale(1.24778)"
         id="g50"><path
           id="path52"
           style="fill:#000000;fill-opacity:1;fill-rule:nonzero;stroke:none"
           d="m 16300,6710.08 c 0,-68.12 -50.1,-123.42 -111.9,-123.42 -61.8,0 -111.9,55.3 -111.9,123.42 0,68.2 50.1,123.5 111.9,123.5 61.8,0 111.9,-55.3 111.9,-123.5" /></g><g
         transform="scale(1.07226)"
         id="g54"><path
           id="path56"
           style="fill:#000000;fill-opacity:1;fill-rule:nonzero;stroke:none"
           d="m 16300,8518.38 c 0,-79.36 -58.3,-143.71 -130.2,-143.71 -71.9,0 -130.2,64.35 -130.2,143.71 0,79.37 58.3,143.72 130.2,143.72 71.9,0 130.2,-64.35 130.2,-143.72" /></g><g
         transform="scale(1.33712)"
         id="g58"><path
           id="path60"
           style="fill:#000000;fill-opacity:1;fill-rule:nonzero;stroke:none"
           d="m 16300,7383.62 c 0,-63.65 -46.7,-115.18 -104.4,-115.18 -57.7,0 -104.4,51.53 -104.4,115.18 0,63.64 46.7,115.24 104.4,115.24 57.7,0 104.4,-51.6 104.4,-115.24" /></g><path
         id="path62"
         style="fill:#ffffff;fill-opacity:1;fill-rule:nonzero;stroke:none"
         d="m 14511.6,6912.8 c 0,-85.1 -62.5,-154.1 -139.6,-154.1 -77.1,0 -139.6,69 -139.6,154.1 0,85.1 62.5,154 139.6,154 77.1,0 139.6,-68.9 139.6,-154" /><g
         transform="scale(1.17069)"
         id="g64"><path
           id="path66"
           style="fill:#000000;fill-opacity:1;fill-rule:nonzero;stroke:none"
           d="m 16300,8399.04 c 0,-72.69 -53.5,-131.63 -119.3,-131.63 -65.9,0 -119.3,58.94 -119.3,131.63 0,72.69 53.4,131.63 119.3,131.63 65.8,0 119.3,-58.94 119.3,-131.63" /></g><g
         transform="scale(1.20393)"
         id="g68"><path
           id="path70"
           style="fill:#000000;fill-opacity:1;fill-rule:nonzero;stroke:none"
           d="m 16300,5356.78 c 0,-70.69 -51.9,-128 -116,-128 -64,0 -115.9,57.31 -115.9,128 0,70.68 51.9,127.91 115.9,127.91 64.1,0 116,-57.23 116,-127.91" /></g><path
         id="path72"
         style="fill:#ffffff;fill-opacity:1;fill-rule:nonzero;stroke:none"
         d="m 12084.9,10933.5 c -1.4,0 -2.8,0.1 -4.2,0.4 -377,64.7 -705.3,134.8 -975.8,208.2 -13.1,3.6 -20.9,17.1 -17.3,30.2 3.5,13.2 17,21 30.3,17.4 268.9,-73 595.6,-142.7 971.1,-207.2 13.5,-2.3 22.5,-15.1 20.2,-28.5 -2.1,-12 -12.5,-20.5 -24.3,-20.5" /><path
         id="path74"
         style="fill:#ffffff;fill-opacity:1;fill-rule:nonzero;stroke:none"
         d="m 13325.8,10763 c -0.9,0 -1.7,0 -2.7,0.1 -374.4,40.3 -734.2,88.1 -1069.3,142 -13.5,2.2 -22.6,14.8 -20.5,28.3 2.2,13.4 14.8,22.7 28.3,20.4 334.3,-53.7 693.2,-101.4 1066.8,-141.6 13.6,-1.4 23.4,-13.6 21.9,-27.2 -1.3,-12.6 -12,-22 -24.5,-22" /><path
         id="path76"
         style="fill:#ffffff;fill-opacity:1;fill-rule:nonzero;stroke:none"
         d="m 15259.6,10628.1 c -0.2,0 -0.5,0 -0.8,0.1 -79.8,2.6 -158.9,5.7 -237.4,9 -13.6,0.6 -24.2,12.1 -23.6,25.7 0.5,13.6 13,24.7 25.6,23.6 78.4,-3.3 157.5,-6.4 237.1,-9 13.6,-0.5 24.3,-11.9 23.8,-25.5 -0.5,-13.4 -11.4,-23.9 -24.7,-23.9" /><g
         transform="scale(1.23258)"
         id="g78"><path
           id="path80"
           style="fill:#ffffff;fill-opacity:1;fill-rule:nonzero;stroke:none"
           d="m 16300,13131.5 c 0,50 -40.6,90.5 -90.7,90.5 h -5923.2 c -73.7,0 -133.4,-59.6 -133.4,-133.2 V 9681.91 c 0,-35.45 7,-69.44 19.5,-100.6 -19.7,-20.2 -30.1,-40.97 -30.1,-61.98 0,-244.21 1373.7,-442.17 3068.3,-442.17 1670.1,0 3028.5,192.28 3067.4,431.62 14.1,24.99 22.2,53.63 22.2,84.05 v 3538.67" /></g><g
         transform="scale(1.23409)"
         id="g82"><path
           id="path84"
           style="fill:#000000;fill-opacity:1;fill-rule:nonzero;stroke:none"
           d="m 10273.5,13185.8 c -62.5,0 -113.3,-50.7 -113.3,-113 V 9670.02 c 0,-32 6.1,-63.28 18.1,-93.02 3,-7.29 1.2,-15.72 -4.3,-21.39 -16.2,-16.7 -24.4,-32.82 -24.4,-47.97 0,-203.63 1223.4,-421.69 3044.6,-421.69 1780.5,0 3011.4,214.25 3043.8,414.4 0.4,2.34 1.2,4.53 2.4,6.64 12.8,22.69 19.6,48.3 19.6,74.06 v 3534.35 c 0,38.8 -31.7,70.4 -70.6,70.4 z M 13194.2,9046 c -1516.3,0 -3084.6,172.68 -3084.6,461.64 0,22.61 9.1,44.81 27.1,66.28 -11,30.96 -16.5,63.21 -16.5,96.1 v 3402.78 c 0,84.3 68.7,153 153.3,153 h 5915.9 c 60.9,0 110.6,-49.5 110.6,-110.4 V 9581.05 c 0,-31.52 -8,-62.79 -23.2,-90.75 C 16217,9201.66 14647.5,9046 13194.2,9046" /></g><g
         transform="scale(1.23177)"
         id="g86"><path
           id="path88"
           style="fill:#ffffff;fill-opacity:1;fill-rule:nonzero;stroke:none"
           d="m 16300,13150.8 c 0,-244.4 -1374.6,-442.5 -3070.3,-442.5 -1695.7,0 -3070.3,198.1 -3070.3,442.5 0,244.3 1374.6,442.5 3070.3,442.5 1695.7,0 3070.3,-198.2 3070.3,-442.5" /></g><g
         transform="scale(1.23328)"
         id="g90"><path
           id="path92"
           style="fill:#000000;fill-opacity:1;fill-rule:nonzero;stroke:none"
           d="m 13213.4,13556.5 c -1822.3,0 -3046.5,-218.1 -3046.5,-421.9 0,-203.8 1224.2,-421.9 3046.5,-421.9 1822.4,0 3046.6,218.1 3046.6,421.9 0,203.8 -1224.2,421.9 -3046.6,421.9 z m 0,-883.8 c -1517.1,0 -3086.5,172.8 -3086.5,461.9 0,289.2 1569.4,461.9 3086.5,461.9 1517.3,0 3086.6,-172.7 3086.6,-461.9 0,-289.1 -1569.3,-461.9 -3086.6,-461.9" /></g><path
         id="path94"
         style="fill:#ffffff;fill-opacity:1;fill-rule:nonzero;stroke:none"
         d="m 13534.3,12950.7 c 0,-85.1 -62.5,-154 -139.6,-154 -77.2,0 -139.7,68.9 -139.7,154 0,85.1 62.5,154.1 139.7,154.1 77.1,0 139.6,-69 139.6,-154.1" /><path
         id="path96"
         style="fill:#ffffff;fill-opacity:1;fill-rule:nonzero;stroke:none"
         d="m 12983.2,14630.8 c 0,-85.1 -62.6,-154.1 -139.7,-154.1 -77.1,0 -139.6,69 -139.6,154.1 0,85.1 62.5,154.1 139.6,154.1 77.1,0 139.7,-69 139.7,-154.1" /><path
         id="path98"
         style="fill:#ffffff;fill-opacity:1;fill-rule:nonzero;stroke:none"
         d="m 14482.2,11798.9 c 0,-85.1 -62.5,-154.1 -139.6,-154.1 -77.1,0 -139.6,69 -139.6,154.1 0,85.1 62.5,154.1 139.6,154.1 77.1,0 139.6,-69 139.6,-154.1" /><g
         transform="scale(1.20405)"
         id="g100"><path
           id="path102"
           style="fill:#000000;fill-opacity:1;fill-rule:nonzero;stroke:none"
           d="m 16300,10299 c 0,-70.7 -51.9,-128 -115.9,-128 -64.1,0 -116,57.3 -116,128 0,70.7 51.9,128 116,128 64,0 115.9,-57.3 115.9,-128" /></g><g
         transform="scale(1.12372)"
         id="g104"><path
           id="path106"
           style="fill:#000000;fill-opacity:1;fill-rule:nonzero;stroke:none"
           d="m 16300,12336.7 c 0,-75.7 -55.6,-137.1 -124.2,-137.1 -68.6,0 -124.3,61.4 -124.3,137.1 0,75.8 55.7,137.1 124.3,137.1 68.6,0 124.2,-61.3 124.2,-137.1" /></g><g
         transform="scale(1.03094)"
         id="g108"><path
           id="path110"
           style="fill:#ffffff;fill-opacity:1;fill-rule:nonzero;stroke:none"
           d="m 16300,11089 c 0,-82.5 -60.6,-149.5 -135.4,-149.5 -74.9,0 -135.5,67 -135.5,149.5 0,82.6 60.6,149.4 135.5,149.4 74.8,0 135.4,-66.8 135.4,-149.4" /></g><path
         id="path112"
         style="fill:#ffffff;fill-opacity:1;fill-rule:nonzero;stroke:none"
         d="m 15569.8,14073.2 c 0,-85.1 -62.5,-154 -139.7,-154 -77.1,0 -139.6,68.9 -139.6,154 0,85.1 62.5,154.1 139.6,154.1 77.2,0 139.7,-69 139.7,-154.1" /><g
         transform="scale(1.18241)"
         id="g114"><path
           id="path116"
           style="fill:#000000;fill-opacity:1;fill-rule:nonzero;stroke:none"
           d="m 16300,12597.1 c 0,-72 -52.9,-130.4 -118.1,-130.4 -65.2,0 -118,58.4 -118,130.4 0,71.9 52.8,130.3 118,130.3 65.2,0 118.1,-58.4 118.1,-130.3" /></g><g
         transform="scale(1.07872)"
         id="g118"><path
           id="path120"
           style="fill:#ffffff;fill-opacity:1;fill-rule:nonzero;stroke:none"
           d="m 16300,12230 c 0,-78.9 -57.9,-142.8 -129.4,-142.8 -71.5,0 -129.4,63.9 -129.4,142.8 0,78.9 57.9,142.9 129.4,142.9 71.5,0 129.4,-64 129.4,-142.9" /></g><g
         transform="scale(1.18889)"
         id="g122"><path
           id="path124"
           style="fill:#ffffff;fill-opacity:1;fill-rule:nonzero;stroke:none"
           d="m 15612.1,16241.8 c 0,32.2 -26.1,58.2 -58.2,58.2 h -3805.6 c -47.3,0 -85.8,-38.3 -85.8,-85.6 v -2188.9 c 0,-22.8 4.6,-44.6 12.7,-64.6 -12.7,-13 -19.5,-26.3 -19.5,-39.8 0,-156.9 882.6,-284.1 1971.4,-284.1 1074.2,0 1947.7,123.8 1970.8,277.8 8.9,15.9 14.2,34.1 14.2,53.5 v 2273.5" /></g><g
         transform="scale(1.19041)"
         id="g126"><path
           id="path128"
           style="fill:#000000;fill-opacity:1;fill-rule:nonzero;stroke:none"
           d="m 11733.4,16258.6 c -35.8,0 -64.9,-29.1 -64.9,-64.8 v -2186.1 c 0,-19.6 3.7,-38.6 11,-56.8 3.1,-7.6 1.4,-16.3 -4.3,-22.2 -9,-9.2 -13.5,-17.7 -13.5,-25.3 0,-46 146.3,-120.7 558.8,-180.2 370.9,-53.4 864.3,-82.9 1389.2,-82.9 517.5,0 1005.8,28.8 1375,80.9 411.3,58.1 565.6,130.5 572.9,179 0.4,2.4 1.1,4.8 2.4,7 7.6,13.8 11.6,28.3 11.6,43.3 v 2270.7 c 0,20.6 -16.8,37.4 -37.5,37.4 z m 1876.3,-2659.7 c -964.4,0 -1989.5,106.7 -1989.5,304.5 0,15.1 5.5,29.9 16.4,44.1 -6.4,19.4 -9.6,39.6 -9.6,60.2 v 2186.1 c 0,58.6 47.8,106.2 106.4,106.2 h 3800.7 c 43.5,0 78.9,-35.4 78.9,-78.8 v -2270.7 c 0,-20.7 -5.2,-41.5 -15.2,-60.4 -42.1,-189.2 -1051.9,-291.2 -1988.1,-291.2" /></g><g
         transform="scale(1.20587)"
         id="g130"><path
           id="path132"
           style="fill:#ffffff;fill-opacity:1;fill-rule:nonzero;stroke:none"
           d="m 15385.6,16019.9 c 0,-154.7 -870.2,-280.1 -1943.6,-280.1 -1073.4,0 -1943.6,125.4 -1943.6,280.1 0,154.7 870.2,280.1 1943.6,280.1 1073.4,0 1943.6,-125.4 1943.6,-280.1" /></g><g
         transform="scale(1.20738)"
         id="g134"><path
           id="path136"
           style="fill:#000000;fill-opacity:1;fill-rule:nonzero;stroke:none"
           d="m 13425.2,16259.1 c -517.6,0 -1004,-29 -1369.8,-81.7 -406.6,-58.6 -551,-132.3 -551,-177.6 0,-45.3 144.4,-119 551,-177.6 365.8,-52.7 852.2,-81.7 1369.8,-81.7 517.5,0 1003.9,29 1369.6,81.7 406.8,58.6 551,132.3 551,177.6 0,45.3 -144.2,119 -551,177.6 -365.7,52.7 -852.1,81.7 -1369.6,81.7 z m 0,-559.5 c -950.9,0 -1961.6,105.2 -1961.6,300.2 0,195 1010.7,300.2 1961.6,300.2 950.9,0 1961.6,-105.2 1961.6,-300.2 0,-195 -1010.7,-300.2 -1961.6,-300.2" /></g><g
         transform="scale(1.06752)"
         id="g138"><path
           id="path140"
           style="fill:#ffffff;fill-opacity:1;fill-rule:nonzero;stroke:none"
           d="m 13580.9,16210.6 c 0,-49.4 -36.3,-89.5 -81.1,-89.5 -44.8,0 -81,40.1 -81,89.5 0,49.4 36.2,89.4 81,89.4 44.8,0 81.1,-40 81.1,-89.4" /></g><g
         transform="scale(1.13139)"
         id="g142"><path
           id="path144"
           style="fill:#ffffff;fill-opacity:1;fill-rule:nonzero;stroke:none"
           d="m 12512.3,16215.6 c 0,-46.6 -34.2,-84.4 -76.5,-84.4 -42.2,0 -76.4,37.8 -76.4,84.4 0,46.6 34.2,84.4 76.4,84.4 42.3,0 76.5,-37.8 76.5,-84.4" /></g><g
         transform="scale(1.02373)"
         id="g146"><path
           id="path148"
           style="fill:#ffffff;fill-opacity:1;fill-rule:nonzero;stroke:none"
           d="m 14735.7,16206.7 c 0,-51.5 -37.8,-93.2 -84.5,-93.2 -46.7,0 -84.5,41.7 -84.5,93.2 0,51.5 37.8,93.3 84.5,93.3 46.7,0 84.5,-41.8 84.5,-93.3" /></g><g
         transform="scale(1.12104)"
         id="g150"><path
           id="path152"
           style="fill:#000000;fill-opacity:1;fill-rule:nonzero;stroke:none"
           d="m 16300,15132.4 c 0,-47 -34.5,-85.1 -77.2,-85.1 -42.6,0 -77.1,38.1 -77.1,85.1 0,47.1 34.5,85.2 77.1,85.2 42.7,0 77.2,-38.1 77.2,-85.2" /></g><g
         transform="scale(1.12381)"
         id="g154"><path
           id="path156"
           style="fill:#000000;fill-opacity:1;fill-rule:nonzero;stroke:none"
           d="m 13331.8,16215 c 0,-46.9 -34.5,-84.9 -77,-84.9 -42.5,0 -77,38 -77,84.9 0,47 34.5,85 77,85 42.5,0 77,-38 77,-85" /></g><g
         transform="scale(1.04221)"
         id="g158"><path
           id="path160"
           style="fill:#000000;fill-opacity:1;fill-rule:nonzero;stroke:none"
           d="m 15724.9,16208.4 c 0,-50.6 -37.3,-91.6 -83,-91.6 -45.9,0 -83.1,41 -83.1,91.6 0,50.6 37.2,91.6 83.1,91.6 45.7,0 83,-41 83,-91.6" /></g><g
         transform="scale(1.1102)"
         id="g162"><path
           id="path164"
           style="fill:#000000;fill-opacity:1;fill-rule:nonzero;stroke:none"
           d="m 14195.1,16214 c 0,-47.5 -35,-86 -78,-86 -43,0 -78,38.5 -78,86 0,47.5 35,86 78,86 43,0 78,-38.5 78,-86" /></g><g
         transform="scale(1.14144)"
         id="g166"><path
           id="path168"
           style="fill:#000000;fill-opacity:1;fill-rule:nonzero;stroke:none"
           d="m 15817.3,16216.4 c 0,-46.2 -33.9,-83.7 -75.8,-83.7 -41.9,0 -75.8,37.5 -75.8,83.7 0,46.2 33.9,83.6 75.8,83.6 41.9,0 75.8,-37.4 75.8,-83.6" /></g><g
         transform="scale(1.07672)"
         id="g170"><path
           id="path172"
           style="fill:#000000;fill-opacity:1;fill-rule:nonzero;stroke:none"
           d="m 15795.1,16211.3 c 0,-49 -35.9,-88.6 -80.3,-88.6 -44.4,0 -80.3,39.6 -80.3,88.6 0,49 35.9,88.7 80.3,88.7 44.4,0 80.3,-39.7 80.3,-88.7" /></g><g
         transform="scale(1.27243)"
         id="g174"><path
           id="path176"
           style="fill:#000000;fill-opacity:1;fill-rule:nonzero;stroke:none"
           d="m 13231.6,16145.1 c -242.4,0 -439.5,-196.8 -439.5,-438.7 0,-242 197.1,-438.8 439.5,-438.8 242.3,0 439.5,196.8 439.5,438.8 0,241.9 -197.2,438.7 -439.5,438.7 z m 0,-1032.4 c -327.9,0 -594.6,266.3 -594.6,593.7 0,327.3 266.7,593.6 594.6,593.6 327.9,0 594.6,-266.3 594.6,-593.6 0,-327.4 -266.7,-593.7 -594.6,-593.7" /></g><g
         transform="scale(1.30549)"
         id="g178"><path
           id="path180"
           style="fill:#000000;fill-opacity:1;fill-rule:nonzero;stroke:none"
           d="m 11990.6,16149.1 c -354.9,0 -643.6,-288.3 -643.6,-642.5 0,-354.3 288.7,-642.6 643.6,-642.6 354.8,0 643.5,288.3 643.5,642.6 0,354.2 -288.7,642.5 -643.5,642.5 z m 0,-1436 c -438.2,0 -794.7,355.9 -794.7,793.5 0,437.5 356.5,793.4 794.7,793.4 438.2,0 794.7,-355.9 794.7,-793.4 0,-437.6 -356.5,-793.5 -794.7,-793.5" /></g><g
         transform="scale(1.22995)"
         id="g182"><path
           id="path184"
           style="fill:#000000;fill-opacity:1;fill-rule:nonzero;stroke:none"
           d="m 16279.9,15445.7 c -11,0 -20,9 -20,20.1 v 155.4 c 0,11.1 9,20 20,20 11.2,0 20.1,-8.9 20.1,-20 v -155.4 c 0,-11.1 -8.9,-20.1 -20.1,-20.1" /></g><g
         transform="scale(1.22995)"
         id="g186"><path
           id="path188"
           style="fill:#000000;fill-opacity:1;fill-rule:nonzero;stroke:none"
           d="m 16279.9,15083.9 c -11,0 -20,8.9 -20,20 v 155.4 c 0,11.1 9,20 20,20 11.2,0 20.1,-8.9 20.1,-20 v -155.4 c 0,-11.1 -8.9,-20 -20.1,-20" /></g><g
         transform="scale(1.22215)"
         id="g190"><path
           id="path192"
           style="fill:#000000;fill-opacity:1;fill-rule:nonzero;stroke:none"
           d="m 16279.8,15440.4 h -156.5 c -11.2,0 -20.2,9.1 -20.2,20.2 0,11.2 9,20.2 20.2,20.2 h 156.5 c 11.2,0 20.2,-9 20.2,-20.2 0,-11.1 -9,-20.2 -20.2,-20.2" /></g><g
         transform="scale(1.2495)"
         id="g194"><path
           id="path196"
           style="fill:#000000;fill-opacity:1;fill-rule:nonzero;stroke:none"
           d="m 16280.3,15102.5 h -153.2 c -10.9,0 -19.7,8.8 -19.7,19.7 0,10.9 8.8,19.8 19.7,19.8 h 153.2 c 10.9,0 19.7,-8.9 19.7,-19.8 0,-10.9 -8.8,-19.7 -19.7,-19.7" /></g><g
         transform="scale(1.2582)"
         id="g198"><path
           id="path200"
           style="fill:#000000;fill-opacity:1;fill-rule:nonzero;stroke:none"
           d="m 4359.84,16108.7 c -9.75,0 -18.2,7.3 -19.43,17.2 l -18.67,150.7 c -1.34,10.7 6.29,20.5 17.04,21.9 10.77,1.5 20.54,-6.3 21.86,-17.1 l 18.68,-150.7 c 1.34,-10.7 -6.29,-20.5 -17.04,-21.9 -0.82,-0.1 -1.64,-0.1 -2.44,-0.1" /></g><g
         transform="scale(1.23109)"
         id="g202"><path
           id="path204"
           style="fill:#000000;fill-opacity:1;fill-rule:nonzero;stroke:none"
           d="m 4500.29,16104.6 c -9.96,0 -18.6,7.4 -19.85,17.5 l -19.09,154.1 c -1.36,10.9 6.44,21 17.42,22.3 11.1,1.5 20.99,-6.4 22.35,-17.4 l 19.08,-154 c 1.38,-11 -6.43,-21 -17.41,-22.4 -0.85,-0.1 -1.68,-0.1 -2.5,-0.1" /></g><g
         transform="scale(1.23786)"
         id="g206"><path
           id="path208"
           style="fill:#000000;fill-opacity:1;fill-rule:nonzero;stroke:none"
           d="m 4188.63,16239.9 c -9.92,0 -18.5,7.4 -19.76,17.5 -1.34,10.9 6.42,20.9 17.35,22.2 l 153.44,19 c 10.87,1.4 20.87,-6.4 22.22,-17.3 1.35,-11 -6.41,-20.9 -17.34,-22.3 l -153.44,-18.9 c -0.83,-0.1 -1.65,-0.2 -2.47,-0.2" /></g><g
         transform="scale(1.24122)"
         id="g210"><path
           id="path212"
           style="fill:#000000;fill-opacity:1;fill-rule:nonzero;stroke:none"
           d="m 4533.77,16240 c -9.89,0 -18.45,7.4 -19.7,17.4 -1.34,10.9 6.39,20.9 17.29,22.2 l 153.04,18.9 c 10.92,1.5 20.81,-6.4 22.16,-17.3 1.34,-10.9 -6.39,-20.8 -17.3,-22.1 l -153.02,-18.9 c -0.83,-0.2 -1.65,-0.2 -2.47,-0.2" /></g><g
         transform="scale(1.30337)"
         id="g214"><path
           id="path216"
           style="fill:#000000;fill-opacity:1;fill-rule:nonzero;stroke:none"
           d="m 4814.03,16246.4 c -39.65,-6.2 -74.49,-27.5 -98.12,-59.9 -23.61,-32.4 -33.17,-72.1 -26.92,-111.6 12.9,-81.8 89.98,-137.9 171.87,-124.9 39.66,6.2 74.5,27.5 98.12,59.9 23.62,32.4 33.18,72.1 26.93,111.6 -12.9,81.8 -89.94,138 -171.88,124.9 z m 23.33,-336.1 c -90.95,0 -171.17,66.2 -185.77,158.6 -7.82,49.6 4.15,99.3 33.73,139.9 29.57,40.5 73.2,67.2 122.84,75 102.29,16.2 198.97,-54 215.15,-156.3 7.82,-49.6 -4.16,-99.3 -33.74,-139.9 -29.58,-40.5 -73.19,-67.2 -122.83,-75 -9.87,-1.5 -19.69,-2.3 -29.38,-2.3" /></g><g
         transform="scale(1.33474)"
         id="g218"><path
           id="path220"
           style="fill:#ffffff;fill-opacity:1;fill-rule:nonzero;stroke:none"
           d="m 7907.45,15039.5 c -13.03,-8 -29.44,-8.4 -42.85,-0.9 -116.13,64.8 -655.18,389 -634.09,813.2 22.29,448.2 509.5,370.5 629.82,149.9 4.57,-8.4 13.49,-13.4 23,-12.9 9.52,0.5 17.98,6.4 21.58,15.2 59.04,141.6 249.63,244.3 429.14,177 214.05,-80.2 431.63,-610.4 -426.6,-1141.5" /></g><g
         transform="scale(1.33227)"
         id="g222"><path
           id="path224"
           style="fill:#000000;fill-opacity:1;fill-rule:nonzero;stroke:none"
           d="m 7546.23,16189.8 c -24.32,0 -48.36,-2.5 -71.56,-7.8 -128.66,-29.4 -204.03,-136.6 -212.25,-301.7 -20.64,-415.3 517.69,-737.3 625.85,-797.7 7.51,-4.2 16.74,-4 24.1,0.6 567,350.8 625.32,672 609.64,832.2 -14.79,150.7 -103.14,249.9 -178.95,278.3 -171.66,64.3 -351.95,-36.5 -406.37,-167.1 -6.38,-15.3 -21.17,-25.8 -37.76,-26.7 -16.36,-0.8 -32.35,8 -40.3,22.6 -54.42,99.8 -186.75,167.3 -312.4,167.3 z m 375.89,-1122.4 h 0.16 z m -22.29,-24.8 c -10.2,0 -20.41,2.5 -29.65,7.7 -111.46,62.2 -666.49,394.7 -644.75,831.8 12.3,247.2 156.27,316.6 240.98,336 157.95,36.1 352.43,-45.3 424.72,-177.9 1.2,-2.1 3.52,-3.6 5.93,-3.3 2.4,0.2 4.58,1.7 5.48,3.9 60.87,146.2 262.03,259.2 453.51,187.6 89.09,-33.4 186.37,-142.1 202.81,-309.4 16.51,-168.8 -42.94,-505.9 -626.97,-867.3 -9.84,-6.1 -20.95,-9.1 -32.06,-9.1" /></g><g
         transform="scale(1.29941)"
         id="g226"><path
           id="path228"
           style="fill:#ffffff;fill-opacity:1;fill-rule:nonzero;stroke:none"
           d="m 11420.7,14513.1 c 0,0 271.4,550.9 367.1,647.9 95.6,96.9 96.6,393.4 -69.8,687.9 -94.8,167.8 -351.6,258.2 -767.4,251.7 -217.5,-3.4 -392,199.4 -742.3,134.6 -443.13,-82 -766.35,-287.4 -627.67,-492.3 138.67,-205 202.32,-291.3 95.42,-304.5 -106.89,-13.3 -165.92,-132.4 136.99,-307.6 302.96,-175.2 1358.96,-935.6 1607.66,-617.7" /></g><g
         transform="scale(1.29892)"
         id="g230"><path
           id="path232"
           style="fill:#000000;fill-opacity:1;fill-rule:nonzero;stroke:none"
           d="m 11425,14518.5 h 0.2 z M 10347,16235 c -41,0 -84.7,-3.7 -131.4,-12.4 -328.64,-60.8 -577.15,-186.5 -633.13,-320.3 -20.09,-48 -14.16,-96 17.48,-142.8 l 17.17,-25.3 c 101.16,-149.3 151.97,-224.2 130.34,-271.9 -9.32,-20.5 -30.72,-32.6 -65.44,-36.9 -29.33,-3.7 -62.82,-18.3 -68.98,-48.6 -4.23,-21.1 -1.54,-99.6 213.25,-223.8 48.58,-28.1 117.18,-71.7 196.51,-122 414.6,-263.2 1185.6,-752.6 1386,-502.3 20.1,40.7 275,555.1 369.9,651.3 93.1,94.4 86.1,384.3 -72.9,665.6 -93,164.6 -352.5,248.4 -750.7,242.1 -90.3,-1.1 -173.2,31.1 -260.8,65.5 -98.9,38.9 -208.1,81.8 -347.3,81.8 z m 888.4,-1812.8 c -324.4,0 -874,348.8 -1233,576.7 -78.95,50.1 -147.24,93.5 -195.12,121.2 -222.03,128.4 -240.28,220.7 -231.42,264.3 8.46,41.8 47.34,71.9 101.46,78.7 13.94,1.7 31.41,5.7 35.57,14.9 12.78,28.3 -48.96,119.4 -127.18,234.9 l -17.17,25.3 c -38.8,57.3 -46.11,119.1 -21.09,178.8 61.74,147.5 315.1,278.9 661.25,343 216.1,40 366.7,-19.2 499.6,-71.4 83.9,-33 163.2,-64.4 246.2,-62.9 412.4,6.2 684.1,-84 784.5,-261.4 172.8,-305.9 169.2,-607.2 66.8,-710.9 -92.6,-93.8 -361.1,-637.8 -363.8,-643.3 -0.5,-1.1 -1.2,-2.2 -2.1,-3.3 -46.5,-59.5 -117.4,-84.6 -204.5,-84.6" /></g><g
         transform="scale(1.22038)"
         id="g234"><path
           id="path236"
           style="fill:#000000;fill-opacity:1;fill-rule:nonzero;stroke:none"
           d="m 10642.6,13606.5 58.2,769.1 c -373.4,82.6 -485.4,589.3 -396.7,984.5 64.3,286.8 233.7,939.9 233.7,939.9 64.3,-147.6 420.6,-76 648.5,-183.6 333.8,-157.6 796.3,-69.3 796.3,-69.3 0,0 -109.6,-174.3 -46.7,-260.3 63,-86 23.7,-416 23.7,-416 0,0 136.5,128.2 282.5,30.2 82.2,-55.2 -11.7,-290.6 -79,-422.6 -67.3,-132 -212,-158 -212,-158 0,0 -23.9,14.2 -72.7,-102.2 l 44.5,-896.4 c 64.2,-337.5 406.3,-547.4 724.1,-679.1 l -1901.1,-623.6 -814.67,714.3 c 285.47,43 633.47,95.6 711.37,373.1" /></g><g
         transform="scale(1.08109)"
         id="g238"><path
           id="path240"
           style="fill:#000000;fill-opacity:1;fill-rule:nonzero;stroke:none"
           d="m 13257.3,3155.61 c 15.9,1026.92 42.4,1865.61 42.4,1865.61 0,0 147.4,-838.69 327.5,-1865.61 H 16300 c -125.2,1300.72 -372.6,3148.11 -372.6,3148.11 l -271.8,2521.89 -5045,-141.89 c 0,0 100.3,-3314.61 221.7,-5528.11 h 2425" /></g><g
         transform="scale(1.06892)"
         id="g242"><path
           id="path244"
           style="fill:#ffffff;fill-opacity:1;fill-rule:nonzero;stroke:none"
           d="m 11276.1,8289.8 c 71.3,55.38 2479.1,0 2479.1,0 l 758.5,7270.5 -664.6,444.4 -203.8,295.3 -1071.1,-942.9 -446.7,524.1 -368.7,-845.2 -482.7,-6746.2" /></g><g
         transform="scale(1.07047)"
         id="g246"><path
           id="path248"
           style="fill:#000000;fill-opacity:1;fill-rule:nonzero;stroke:none"
           d="m 11983,8325.61 c 591.9,0 1379.2,-16.26 1731.6,-24.29 l 753.6,7224.98 -652,436 c -2.4,1.6 -4.5,3.7 -6.2,6.1 l -188.7,273.5 -1050.1,-924.4 c -4.6,-4.1 -10.8,-6.3 -16.9,-5.7 -6.2,0.4 -11.9,3.3 -15.9,8 l -422.1,495.4 -351.8,-806.6 -479.5,-6702.33 c 99.5,14.29 368.5,19.34 698,19.34 z m -723.7,-71.65 c -3.9,0 -7.7,1.02 -11.3,2.89 -8,4.3 -11.9,13.54 -11.2,22.61 l 482,6736.44 c 0.2,2.6 0.7,5.2 1.9,7.5 l 368.1,844 c 3.2,7.3 9.8,12.4 17.8,13.6 7.7,1.1 15.7,-1.8 20.8,-7.9 l 430.9,-505.5 1052,926.1 c 4.9,4.3 11.5,6.3 18,5.5 6.6,-0.8 12.5,-4.4 16.2,-9.8 l 201,-291.2 659.9,-441.4 c 7.1,-4.7 11,-13 10.1,-21.5 l -757.3,-7259.86 c -1.2,-11.96 -11.4,-20.08 -23.5,-20.65 -945.7,21.68 -2382.1,40.55 -2462.6,3.65 -4,-3.08 -8.3,-4.48 -12.8,-4.48" /></g><g
         transform="scale(1.02829)"
         id="g250"><path
           id="path252"
           style="fill:#ffffff;fill-opacity:1;fill-rule:nonzero;stroke:none"
           d="m 12537,16300 c 0,0 -711.9,-5079.8 -387.3,-10196.36 0,0 -862.9,-496.75 -1115.8,-469.03 -253,27.71 -823.9,6993.29 -532.4,9504.19 l 1326.4,831.6 709.1,329.6" /></g><g
         transform="scale(1.0299)"
         id="g254"><path
           id="path256"
           style="fill:#000000;fill-opacity:1;fill-rule:nonzero;stroke:none"
           d="m 11021.9,5648.93 v 0 z m -0.9,0.58 c 227.6,-22.43 977.1,396.93 1084.9,458.01 -302.6,4798.88 314.2,9619.58 381.9,10126.88 l -666.9,-310 -1313.2,-823.4 c -123.5,-1079.6 -101.4,-3171.6 59.4,-5601.3 151.9,-2294.69 353.5,-3782.03 453.9,-3850.19 z m 16.5,-48.65 c -8.3,0 -16.1,0.39 -23.5,1.17 -12.2,1.36 -23.5,8.44 -33.7,21.16 -147.8,185.65 -350.7,2176.44 -466.4,3955.36 -156.4,2405.05 -176.1,4475.65 -52.5,5539.35 0.8,7.3 4.9,13.7 11,17.6 l 1324.3,830.3 c 0.9,0.6 1.8,1 2.7,1.5 l 707.9,329 c 8,3.7 17.3,2.8 24.4,-2.5 7.1,-5.2 10.6,-13.9 9.5,-22.5 -7.2,-50.7 -706.8,-5128.1 -386.6,-10175.63 0.6,-9.13 -4,-17.77 -11.9,-22.24 -34.5,-19.9 -824.1,-472.57 -1105.2,-472.57" /></g><g
         transform="scale(1.09069)"
         id="g258"><path
           id="path260"
           style="fill:#ffffff;fill-opacity:1;fill-rule:nonzero;stroke:none"
           d="m 13507,15706.2 c 0,0 67.2,-1623 -104.1,-3024.3 -143.7,-1175.8 -338.3,-4223.38 14.5,-6200.57 108,-605.58 707.4,-993.69 1304,-840.21 569.7,146.52 1209,426.62 1451.8,959.67 126.8,278.64 -278.7,1870.11 -404.3,2586.45 -125.5,716.43 -194.5,2363.06 -194.5,2363.06 l 239.2,3185.6 -1756.8,794.2 -549.8,176.1" /></g><g
         transform="scale(1.08997)"
         id="g262"><path
           id="path264"
           style="fill:#000000;fill-opacity:1;fill-rule:nonzero;stroke:none"
           d="m 13539.6,15685.2 c 8.2,-236.1 51,-1718 -105.5,-2997.7 -115,-941.8 -359.5,-4102.21 14.4,-6197.96 50.6,-283.58 218.6,-535.61 460.7,-691.21 244.8,-157.35 534.6,-204.14 816.3,-131.56 519.9,133.67 1191.4,406.71 1437.7,947.73 89.4,196.34 -103.2,1107.83 -258,1840.24 -58.6,277.53 -114,539.64 -148.2,734.6 -124.4,710.2 -194.3,2351.16 -194.9,2367.66 -0.1,0.8 0,1.8 0,2.6 l 238.2,3171.9 -1742.4,787.6 z m 925.2,-10097.06 c -203.6,0 -403.1,58.35 -580,172.11 -252.8,162.39 -428,425.34 -480.8,721.31 -374.9,2101.25 -130,5267.74 -14.7,6211.44 169.2,1384.3 104.7,3006.4 103.9,3022.6 -0.3,7.4 3.1,14.5 8.9,19 5.9,4.5 13.7,5.8 20.7,3.5 l 550.2,-176.2 c 0.8,-0.3 1.6,-0.6 2.4,-1 l 1758,-794.7 c 8.6,-3.9 13.9,-12.8 13.2,-22.3 l -239.3,-3186.3 c 2.4,-55.1 71.9,-1661.82 194.3,-2360.37 34.1,-194.31 89.3,-455.98 147.9,-733.05 164.3,-777.45 350.5,-1658.57 254.9,-1868.39 -253.8,-557.36 -938.2,-836.73 -1467.7,-972.88 -90.3,-23.3 -181.5,-34.77 -271.9,-34.77" /></g><g
         transform="scale(1.09695)"
         id="g266"><path
           id="path268"
           style="fill:#ffffff;fill-opacity:1;fill-rule:nonzero;stroke:none"
           d="m 12220,15912.8 c -108,0 -231.8,11.7 -376.2,37.2 -12.3,2.2 -20.4,13.9 -18.2,26.1 2.1,12.2 13.7,20.5 25.9,18.2 638.5,-112.8 851.9,44.4 1104.7,297 8.9,8.7 23.1,8.7 31.9,-0.1 8.7,-8.8 8.7,-23 0,-31.8 -199,-198.7 -383.6,-346.6 -768.1,-346.6" /></g><g
         transform="scale(1.00347)"
         id="g270"><path
           id="path272"
           style="fill:#000000;fill-opacity:1;fill-rule:nonzero;stroke:none"
           d="m 13254.9,8802.2 c -0.1,0 -0.3,0 -0.4,0 -13.6,0.2 -24.4,11.36 -24.2,24.91 l 117.9,7447.89 c 0.2,13.6 10.8,25 25.1,24.2 13.5,-0.2 24.4,-11.4 24.2,-25 l -118,-7447.78 c -0.2,-13.46 -11.3,-24.22 -24.6,-24.22" /></g><g
         transform="scale(1.03916)"
         id="g274"><path
           id="path276"
           style="fill:#ffffff;fill-opacity:1;fill-rule:nonzero;stroke:none"
           d="m 12970.2,15966.6 418.8,313.5 c 26.4,19.9 64.6,6 72.1,-26.3 l 122.1,-528.2 c 7,-30 -17.3,-58.2 -48.1,-55.9 l -614.2,45.4 c -4.8,0.3 -9.7,-0.1 -14.5,-1.3 l -380.9,-95 c -32.1,-8 -61.7,19.3 -56.4,51.8 l 88.5,540.2 c 6,36.5 50.5,51.2 77.1,25.5 l 276.1,-266 c 16.1,-15.7 41.4,-17.2 59.4,-3.7" /></g><g
         transform="scale(1.04024)"
         id="g278"><path
           id="path280"
           style="fill:#000000;fill-opacity:1;fill-rule:nonzero;stroke:none"
           d="m 12590.1,16208.7 c -3.1,0 -5.7,-0.7 -7.3,-1.2 -3.8,-1.3 -12.9,-5.5 -14.8,-17.4 l -88.5,-539.6 c -1.2,-7.5 1.3,-14.6 6.8,-19.8 5.6,-5.1 13.1,-7 20.4,-5.1 l 380.6,95 c 7.2,1.7 14.5,2.4 22,1.8 l 613.5,-45.4 c 7.1,-0.5 13.8,2.3 18.5,7.7 4.6,5.4 6.3,12.4 4.7,19.3 l -121.9,527.6 c -1.8,7.4 -6.8,13.1 -14,15.7 -7.2,2.6 -14.8,1.5 -20.9,-3.1 l -418.3,-313.2 c -27.5,-20.5 -65.4,-18.2 -90,5.6 l -275.8,265.8 c -5.1,4.9 -10.5,6.3 -15,6.3 z m -88.8,-631.3 c -17.3,0 -34.1,6.5 -47.1,18.5 -17.2,15.9 -25.3,39.1 -21.4,62.3 l 88.3,539.6 c 4.2,25.5 22.1,46.5 46.7,54.7 24.6,8.2 51.6,2.1 70.3,-16 l 275.7,-265.8 c 7.9,-7.5 19.9,-8.3 28.7,-1.7 l 418.3,313.2 c 18.9,14.2 43.5,17.8 65.7,9.6 22.1,-8.1 38.4,-26.6 43.7,-49.6 l 122,-527.5 c 5,-21.8 -0.4,-43.9 -14.9,-60.8 -14.6,-17 -35.8,-25.9 -58,-24.2 l -613.6,45.4 c -2.2,0.2 -4.7,0 -7,-0.6 l -380.5,-95 c -5.6,-1.4 -11.3,-2.1 -16.9,-2.1" /></g><path
         id="path282"
         style="fill:#000000;fill-opacity:1;fill-rule:nonzero;stroke:none"
         d="m 11872.2,7761.2 c 148.2,-193.2 248.5,-422.6 289.8,-662.5 147,86.7 294,173.4 440.9,260.1 14.7,8.6 30.7,19 34.7,35.5 4.1,17.3 -6.5,34.3 -16.6,49 -106.4,154.2 -203.1,335.4 -327.7,475 -70.6,79.1 -93,47.9 -179.7,-6.3 -80.5,-50.3 -161,-100.6 -241.4,-150.8" /><g
         transform="scale(1.13069)"
         id="g284"><path
           id="path286"
           style="fill:#ffffff;fill-opacity:1;fill-rule:nonzero;stroke:none"
           d="m 15943.9,10450 c -233.6,-624.88 -514.2,-1202.31 -865.4,-1708.11 -1129.7,-899 -2450.4,-1732.56 -3968.1,-2498.64 l -338.2,900.42 c 1354.6,981.08 2731.1,1972.95 3111.4,2476.09 517.5,1282.64 820.2,3081.04 1157.4,4644.54 255.5,-30 503.2,-578.2 687.2,-910.1 493.4,-889.3 571.8,-1951.8 215.7,-2904.2" /></g><g
         transform="scale(1.17574)"
         id="g288"><path
           id="path290"
           style="fill:#000000;fill-opacity:1;fill-rule:nonzero;stroke:none"
           d="m 10663.1,6004.72 c -2.7,0 -5.2,0.42 -7.7,1.45 -5.5,2.12 -10,6.54 -12,12.16 l -325.2,865.92 c -3.4,8.84 -0.4,18.79 7.3,24.32 l 83.8,60.73 c 1250.7,905.72 2543.9,1842.24 2902.2,2313.94 297.4,737.46 573.3,1577.96 820.2,2497.96 3,11.3 14.5,17.8 25.7,14.8 11.2,-2.9 17.8,-14.4 14.8,-25.6 -247.6,-922.8 -524.4,-1765.7 -822.8,-2505.45 -0.7,-1.7 -1.7,-3.31 -2.8,-4.76 C 12986.9,8784.15 11689,7844.24 10433.9,6935.28 l -70.8,-51.29 311.3,-829.01 c 1434.2,725.42 2708.8,1528.74 3788.8,2387.77 39.6,63.2 85.8,133.19 134.6,207.36 594.9,902.92 1702.2,2583.69 73.5,4976.49 -6.5,9.6 -4,22.6 5.6,29.1 9.6,6.6 22.6,4.1 29.1,-5.5 709.7,-1042.7 978.3,-2081 798.3,-3086.2 -150.9,-843.42 -584.5,-1501.47 -871.4,-1936.94 -49.5,-75.19 -96.2,-146.12 -136,-209.66 -1.3,-1.95 -2.9,-3.74 -4.7,-5.27 C 13404,7546.3 12119,6737.11 10672.5,6006.93 c -3,-1.45 -6.2,-2.21 -9.4,-2.21" /></g><g
         transform="scale(1.20321)"
         id="g292"><path
           id="path294"
           style="fill:#ffffff;fill-opacity:1;fill-rule:nonzero;stroke:none"
           d="m 7061.42,16300 c 19.23,-715.6 620.75,-1772.4 182.38,-2626.8 -610.09,-1189.2 -123.14,-1851 -379.09,-2752.8 -267.91,-943.68 -125.71,-672.5 122.69,-2967.35 69.43,-641.53 -460.99,-1714.74 -847.11,-2064.97 -206.71,-187.5 -476.12,-77.63 -745.68,40.64 -865.72,379.57 -941.94,1022.35 -1685.21,1326.7 -546.05,223.57 -718.04,-84.61 -919.01,187 -428.21,578.62 -618.53,2347.22 584.92,4563.38 1203.44,2216 2141.08,1545.3 3686.11,4294.2" /></g><g
         transform="scale(1.20485)"
         id="g296"><path
           id="path298"
           style="fill:#000000;fill-opacity:1;fill-rule:nonzero;stroke:none"
           d="m 3290.16,7353.55 c 111.59,0 248.86,-18.17 421.96,-89.05 365.23,-149.56 569.07,-377.64 784.89,-619.17 225.34,-252.15 458.34,-512.93 898.5,-705.9 294.63,-129.23 534.92,-214.47 722.69,-44.15 372.6,337.97 907.96,1410.88 839.35,2044.74 -76.82,709.8 -142.77,1168.78 -190.93,1503.92 -105.71,735.76 -116.76,812.66 69.08,1467.36 101.77,358.5 84.98,676.2 67.21,1012.4 -26.6,503.9 -54.14,1025 312.84,1740.3 288.18,561.7 118.85,1219.6 -30.54,1800 -68.47,266 -133.51,518.7 -150.2,742.5 -793.38,-1393.8 -1417.2,-1881.1 -2020.69,-2352.3 -542.62,-423.8 -1055.16,-824 -1625.6,-1874.5 -673.14,-1239.6 -861.33,-2252.15 -900.66,-2883.27 -44.13,-708.22 73.63,-1325.73 315,-1652 94.17,-127.23 177.05,-118.02 314.34,-102.74 50.03,5.56 106.92,11.86 172.76,11.86 z M 5865.61,5758.41 c -159.4,0 -329.41,74.62 -486.54,143.51 -448.33,196.53 -684.34,460.64 -912.6,716.1 -212.58,237.96 -413.38,462.64 -769.87,608.54 -265.55,108.82 -436.95,89.73 -574.67,74.37 -141.45,-15.68 -243.59,-27.05 -351.78,119.19 -246.95,333.65 -367.67,961.28 -322.96,1678.8 39.59,635.27 228.84,1654.18 905.54,2900.28 574.51,1058 1090.3,1460.8 1636.38,1887.2 609.1,475.7 1238.92,967.6 2044.88,2401.5 4.5,8.1 13.76,12.1 22.76,9.9 8.95,-2.3 15.31,-10.2 15.55,-19.4 6.36,-236 77.38,-512 152.57,-804.2 151.22,-587.5 322.6,-1253.4 27.32,-1828.9 -361.94,-705.5 -334.7,-1221 -308.37,-1719.5 17.95,-339.7 34.9,-660.6 -68.73,-1025.7 -183.45,-646.3 -172.52,-722.4 -67.93,-1450.35 48.2,-335.39 114.2,-794.78 191.11,-1505.33 C 7069.33,7287.9 6533.23,6216.4 6145.71,5864.9 6060.3,5787.46 5965,5758.41 5865.61,5758.41" /></g><g
         transform="scale(1.2354)"
         id="g300"><path
           id="path302"
           style="fill:#000000;fill-opacity:1;fill-rule:nonzero;stroke:none"
           d="m 6809.48,16113.7 c -64.59,-18.5 -127.09,-44.3 -186.48,-77.8 -656.12,-370.1 -243.17,-1227.6 -556.89,-1782.9 -268.99,-476.1 -126.11,-852.2 232.09,-1229.5 207.26,-218.3 401.81,-399.7 465.17,-705.7 36.51,-176.3 45.03,-358.1 91.45,-532 229.17,-859 1229.07,-1125.7 2009,-939.3 348.95,83.4 522.98,280.5 786.86,523 304.84,280 793.22,731.9 453.42,1131.7 -109.97,129.4 -213.5,221.2 -368.67,290.4 -270.11,120.6 -733.68,244.1 -821.43,573 -66.13,247.6 124.17,507.2 -13.36,747.9 -107.41,188.1 -349.52,245.5 -465.11,429 -99.88,158.5 -61.51,362.5 -73.98,549.4 -44.84,672 -903.79,1209.1 -1552.07,1022.8" /></g><path
         id="path304"
         style="fill:#ffffff;fill-opacity:1;fill-rule:nonzero;stroke:none"
         d="m 11820.8,8096.9 c -93,201.4 -338.1,2108.8 -366.4,2317.8 -61.7,455.7 -127.5,706.1 -123.4,1206.9 14.1,1714 496.4,3246.4 135.7,3534.5 -334,-59.9 -487,41.4 -843.1,-275 -519.3,-461.5 -749.62,-1137.4 -797.64,-1814.6 -61.75,-871 131.81,-1754.9 414.94,-2574.2 134.5,-389.4 975.8,-1948 967,-2166.6 -4.7,-115.1 -113.7,-449.6 -106.4,-508.1 4.2,-33.9 372.2,-823 578.7,-1166.4 20.4,-34 54.6,-73 91.8,-59.1 18.2,6.9 29.4,24.7 39.2,41.5 141.8,242.1 263.3,496.1 363,758.3 11.8,31.2 -44.7,255.5 -105.7,319.8 -102.5,108 -181.4,241.6 -247.7,385.2" /><path
         id="path306"
         style="fill:#000000;fill-opacity:1;fill-rule:nonzero;stroke:none"
         d="m 11459.6,15129.8 c -87.2,-14.9 -163.3,-19.2 -230.8,-23 -187.5,-10.7 -335.6,-19.1 -588.8,-244.1 -583.9,-518.9 -751.58,-1264.2 -789.43,-1798 -54.13,-763.3 81.16,-1602.2 413.63,-2564.4 54.6,-158 228.5,-514.2 412.7,-891.4 275.9,-564.8 561.1,-1148.9 555.6,-1284.2 -2.5,-61.7 -32,-177.1 -60.5,-288.7 -23,-89.8 -49,-191.5 -46,-215.3 9.5,-38.4 366.7,-809.8 575.3,-1156.8 17.1,-28.4 42.4,-56 62,-48.6 10.2,3.8 18.4,16.7 26.6,30.7 140.7,240.4 262.2,494.3 361.2,754.7 6.2,29.7 -47,237.7 -100.5,294 -93.3,98.4 -175.8,226.5 -252.2,391.9 -57,123.5 -176.6,872.4 -355.4,2226.1 -6,45.6 -10.5,79.4 -13.1,98.7 -15.3,112.9 -30.6,212.1 -45.5,308 -45.3,292.7 -81.2,523.9 -78.1,902.4 5.9,718.5 95.6,1418.3 167.7,1980.7 97.1,757.5 174.1,1358.2 -14.4,1527.3 z m 296.8,-8565.2 c -33.9,0 -68.4,25.7 -97.3,73.9 -200.9,334 -576.9,1134.8 -582.1,1176.1 -3.9,31.4 15.3,109.3 47.1,233.6 26.7,104.1 56.9,222 59.1,278.5 5,122.9 -290.2,727.3 -550.6,1260.5 -184.9,378.6 -359.5,736.2 -415.1,897 -334.61,968.7 -470.76,1813.9 -416.16,2584 38.52,543 209.56,1301.5 805.86,1831.3 266,236.4 421.7,245.3 618.8,256.5 72.4,4.2 147.3,8.4 236.3,24.4 7.1,1.3 14.2,-0.6 19.8,-5 220.7,-176.3 145.2,-764.7 40.9,-1579.2 -71.9,-561 -161.4,-1259.3 -167.3,-1974.8 -3.1,-374.5 32.5,-603.9 77.5,-894.5 14.9,-96.1 30.3,-195.5 45.6,-308.9 2.6,-19.3 7.1,-53.2 13.1,-98.8 221.9,-1680 313.5,-2130.1 351.3,-2212 74.1,-160.3 153.6,-284.1 243.2,-378.5 63.8,-67.2 127.1,-302.7 110.8,-345.6 -99.9,-262.9 -222.6,-519.2 -364.7,-762 -12.3,-21.1 -26.5,-42.6 -51.8,-52.1 -8,-2.9 -16.1,-4.4 -24.3,-4.4" /><path
         id="path308"
         style="fill:#ffffff;fill-opacity:1;fill-rule:nonzero;stroke:none"
         d="m 12601.5,3419.6 c -441.1,1998.2 -1564.3,6654.6 -2005.5,8652.9 -786,32.1 -1572.04,64.2 -2358.07,96.3 -502.96,-794.3 -1096.04,-1922 -1503.12,-3359.3 -212.63,-750.8 -546.62,-2158.8 -719.84,-3126.5 -85.53,-477.7 -385.79,-1800.1 48.96,-2017.1 723.66,-361.2 2841.19,-365 6537.57,-246.3" /><path
         id="path310"
         style="fill:#000000;fill-opacity:1;fill-rule:nonzero;stroke:none"
         d="m 12616.9,3445.8 c -11.4,0 -21.6,7.8 -24.1,19.3 -220.6,999 -622.1,2677.7 -1010.4,4301 -385.9,1613.3 -784.9,3281.1 -1006.4,4282.5 l -2324.83,95 C 7593.89,11103.1 7091.73,9979.1 6758.55,8802.7 c -209.19,-738.6 -543.69,-2143.1 -719.3,-3124 -2.75,-15.4 -293.51,-2020.9 -296.04,-2087.5 -0.53,-13.6 -12.2,-25 -25.54,-23.8 -13.6,0.5 -24.24,11.8 -23.78,25.4 2.17,65 294.01,2079 296.79,2094.6 175.88,982.4 510.88,2389 720.4,3128.8 335.76,1185.5 842.46,2317.9 1506.01,3365.8 4.71,7.5 13.14,11.9 21.85,11.5 l 2358.06,-96.4 c 11.2,-0.5 20.7,-8.4 23.1,-19.3 220.5,-998.9 622,-2677.2 1010.3,-4300.2 388.3,-1623.6 789.9,-3302.4 1010.6,-4301.8 2.9,-13.3 -5.5,-26.5 -18.8,-29.4 -1.8,-0.4 -3.6,-0.6 -5.3,-0.6" /><path
         id="path312"
         style="fill:#ffffff;fill-opacity:1;fill-rule:nonzero;stroke:none"
         d="m 11435.8,14499.2 c 104.9,69.8 157.7,196.2 131.7,319.4 -84,398 -470.8,1202.9 -2226.36,1177.7 -2171.13,-31.1 -2954.1,-819.1 -2954.1,-819.1 l 616.47,-1094.8 62.53,-511.1 c 0,0 494.55,-1908.7 836.02,-2340.9 371.98,-470.8 1534.12,432.2 2813.64,324.2 31.8,438.5 55.8,1211.7 306.2,1980.1 l 118.8,768.2 295.1,196.3" /><path
         id="path314"
         style="fill:#000000;fill-opacity:1;fill-rule:nonzero;stroke:none"
         d="m 7672.88,11390.1 c -13.09,0 -24.01,10.3 -24.62,23.5 -0.63,13.6 9.9,25.1 23.51,25.8 l 3042.73,139.8 c 13.2,0.8 25.2,-9.9 25.8,-23.5 0.6,-13.6 -9.9,-25.2 -23.5,-25.8 l -3042.77,-139.8 c -0.38,0 -0.77,0 -1.15,0" /><path
         id="path316"
         style="fill:#000000;fill-opacity:1;fill-rule:nonzero;stroke:none"
         d="m 11810.5,15177.9 c -11.5,0 -21.9,8.2 -24.1,20 -0.5,2 -44.2,205.2 -363.6,401.2 -297.5,182.6 -900.1,395.2 -2081.18,372.5 -1405.13,-27.1 -2241.29,-373.1 -2695.31,-658.6 -11.51,-7.2 -26.77,-3.8 -34.02,7.8 -7.25,11.5 -3.78,26.8 7.76,34 459.31,288.8 1304.17,638.8 2720.61,666.2 1199.14,23.1 1811.84,-196 2114.54,-383.9 333.9,-207.3 377.9,-420.9 379.6,-429.9 2.5,-13.4 -6.2,-26.3 -19.6,-28.9 -1.6,-0.2 -3.1,-0.4 -4.7,-0.4" /><path
         id="path318"
         style="fill:#000000;fill-opacity:1;fill-rule:nonzero;stroke:none"
         d="m 11056.4,14014.6 c -2.6,0 -5.2,0.4 -7.8,1.2 -12.9,4.3 -19.9,18.3 -15.7,31.2 l 182.2,548.8 c 4.4,12.9 18.3,19.9 31.2,15.7 13,-4.3 20,-18.3 15.7,-31.2 l -182.2,-548.8 c -3.5,-10.4 -13.1,-16.9 -23.4,-16.9" /><g
         transform="scale(1.05917)"
         id="g320"><path
           id="path322"
           style="fill:#ffffff;fill-opacity:1;fill-rule:nonzero;stroke:none"
           d="m 8825.06,16300 144.87,-1103.9 c 7.24,-55.2 47.76,-100.3 101.97,-113.5 l 341.13,-164.8 c 0,0 -1578.75,-249.5 -1622.66,38.8 l 133.77,147.7 94.59,1160.4 806.33,35.3" /></g><g
         transform="scale(1.16438)"
         id="g324"><path
           id="path326"
           style="fill:#ffffff;fill-opacity:1;fill-rule:nonzero;stroke:none"
           d="m 6924.35,15649.9 c 28.56,7.1 59.07,-2.9 87.59,-25.4 0.5,6.3 0.98,12.5 1.62,18.5 v 657 c 742.93,-538.7 880.81,-194.2 1350.27,-348.5 0,0 4.98,-305.3 6.45,-326.6 28.39,22.2 58.74,32.1 87.15,25 72.31,-18.1 104.5,-138.1 71.9,-268 -31.53,-125.6 -159.03,-265.4 -232.81,-258.1 -113.44,-331.3 -341.97,-616.7 -605.62,-616.7 -263.65,0 -492.18,285.4 -605.62,616.7 -73.77,-7.3 -201.28,132.5 -232.81,258.1 -32.61,129.9 -0.42,249.9 71.88,268" /></g><g
         transform="scale(1.16599)"
         id="g328"><path
           id="path330"
           style="fill:#000000;fill-opacity:1;fill-rule:nonzero;stroke:none"
           d="m 7075.51,15124.1 c 8.96,0 17.07,-5.7 20.02,-14.3 95.02,-277.5 305.18,-601.6 584.76,-601.6 279.57,0 489.75,324.1 584.78,601.6 3.18,9.3 12.17,15 22.08,14.2 58.86,-5.4 179.45,120.7 209.9,241.9 14.89,59.3 16.12,117.9 3.48,165 -11.47,42.8 -32.75,70.1 -59.89,76.9 -26.26,6.5 -51.94,-7.9 -68.84,-21.1 -6.18,-4.9 -14.53,-5.9 -21.66,-2.7 -7.16,3.2 -11.97,10.1 -12.51,17.9 -1.31,19 -5.2,249.5 -6.24,312.1 -157.79,49.2 -275.22,40.6 -399.35,31.5 -220.79,-16.1 -448.9,-32.8 -906.99,290.9 v -614.9 c 0,-0.8 -0.05,-1.5 -0.12,-2.3 -0.52,-4.8 -0.92,-9.9 -1.34,-15 l -0.23,-2.9 c -0.64,-7.8 -5.49,-14.6 -12.64,-17.7 -7.15,-3.1 -15.43,-2.1 -21.55,2.8 -17.01,13.4 -42.83,27.9 -69.23,21.4 -27.14,-6.8 -48.4,-34.1 -59.88,-76.9 -12.63,-47.1 -11.4,-105.7 3.48,-165 30.43,-121.2 151.46,-247.3 209.9,-241.9 0.7,0 1.39,0.1 2.07,0.1 z m 604.78,-658.2 c -297.05,0 -518.06,328.6 -619.91,616.1 -90.44,10 -208.52,156.5 -237.88,273.6 -16.61,66.1 -17.78,132.3 -3.31,186.3 15.64,58.3 47.78,96.3 90.48,106.9 23.63,5.9 48.41,2.9 73.06,-8.7 v 637.4 c 0,8 4.47,15.3 11.54,18.9 7.07,3.6 15.6,2.9 22.04,-1.8 468.14,-339.4 694.14,-322.9 912.65,-306.9 126.35,9.2 256.95,18.8 429.94,-38.1 8.57,-2.8 14.41,-10.7 14.55,-19.7 1.09,-66.6 3.7,-219 5.33,-289.4 24.36,11.3 48.79,14.2 72.15,8.3 42.69,-10.6 74.83,-48.6 90.47,-106.9 14.48,-54 13.3,-120.2 -3.31,-186.3 -29.38,-117 -147.45,-263.6 -237.88,-273.6 -101.86,-287.5 -322.88,-616.1 -619.92,-616.1" /></g><path
         id="path332"
         style="fill:#000000;fill-opacity:1;fill-rule:nonzero;stroke:none"
         d="m 7741.49,11301.4 c -10.6,0 -20.4,6.8 -23.61,17.5 l -675.46,2245.3 c -0.66,2.2 -1.01,4.5 -1.05,6.7 -6.2,374.6 174.8,695.3 484.17,858.1 376.94,198.3 865.02,129.4 1305.61,-184.2 106.86,-76.1 253.92,-60.9 342.04,35.4 284.28,310.6 714.02,449.6 1094.71,353.8 339.1,-85.3 579,-341.7 675.4,-721.9 0.7,-2.6 0.9,-5.4 0.7,-8.2 l -203.8,-2351.5 c -1.1,-13.5 -13.1,-24 -26.7,-22.4 -13.5,1.2 -23.6,13.1 -22.4,26.7 l 203.3,2347.3 c -92.4,359.6 -319,601.8 -638.6,682.1 -357.72,90 -778.19,-46.4 -1046.2,-339.2 -104.96,-114.7 -279.95,-132.8 -407.07,-42.3 -425.12,302.7 -893.9,370.2 -1254.01,180.7 -291.63,-153.4 -462.62,-456.1 -457.87,-810.1 l 674.48,-2242.1 c 3.92,-13 -3.47,-26.8 -16.52,-30.7 -2.37,-0.7 -4.76,-1 -7.12,-1" /><path
         id="path334"
         style="fill:#ffffff;fill-opacity:1;fill-rule:nonzero;stroke:none"
         d="m 7662.78,11292.3 c -119.82,-413.8 -358.43,-708.5 -532.96,-658.1 -174.52,50.4 -218.86,426.7 -99.03,840.5 119.82,413.8 358.43,708.5 532.95,658.1 174.52,-50.4 218.86,-426.7 99.04,-840.5" /><path
         id="path336"
         style="fill:#000000;fill-opacity:1;fill-rule:nonzero;stroke:none"
         d="m 7523.13,12113.8 c -155.91,0 -362.63,-279.8 -468.66,-646 -57.05,-197 -78.38,-391.2 -60.05,-546.8 17.22,-146 69.07,-242 142.25,-263.1 158.65,-45.7 388.54,248 502.42,641.3 57.05,197 78.38,391.2 60.05,546.8 -17.22,146.1 -69.06,242 -142.24,263.1 -10.94,3.1 -22.23,4.7 -33.77,4.7 z m -353.34,-1509.9 c -15.91,0 -31.54,2.2 -46.81,6.6 -94.56,27.3 -157.62,135.5 -177.56,304.8 -19.08,161.9 2.82,363 61.66,566.3 125.5,433.4 373.08,729.9 563.51,674.9 94.56,-27.3 157.62,-135.5 177.55,-304.8 19.08,-161.9 -2.82,-363 -61.66,-566.3 -115.43,-398.6 -334.12,-681.5 -516.69,-681.5" /><path
         id="path338"
         style="fill:#000000;fill-opacity:1;fill-rule:nonzero;stroke:none"
         d="m 7313.89,10734.9 c 326.52,-68.5 663.88,-41.5 1019.7,147.8 -85.28,212 -251.36,439 -448.46,560.9 -69.67,43.1 -178.05,46.1 -194.79,134.7 -17.22,91.1 113.49,156.4 104.84,252.2 -1.29,14.3 -6.22,29.3 -17.77,37.9 -25.77,19.2 -60.92,-4.5 -83.77,-27.1 -135.03,-133.4 -359.52,-296.6 -414.26,-478.6 -19.06,-63.4 -23.86,-615.6 34.51,-627.8" /><path
         id="path340"
         style="fill:#ffffff;fill-opacity:1;fill-rule:nonzero;stroke:none"
         d="m 6566.56,15261.2 c 101.5,76.6 247.41,48.1 313.41,-60.5 5.18,-8.5 10.33,-17 15.45,-25.4 253.62,-416.7 261.93,-1096.6 122.43,-1591.5 -46.51,-164.9 -127.73,-201.7 -197.37,-344.8 -279.59,-574.7 -312.32,-1066.5 -113.08,-1552.5 177.51,-433 803.82,-995.1 1293.1,-1134.4 256.12,-72.9 783.65,-52.7 1057.83,-38.3 85.34,4.4 164.96,-56.3 184.85,-145.7 52.2,-234.6 -32.63,-455.1 -343.36,-604 -316.02,-46.6 -570.91,41.5 -683.03,152.6 -259.24,256.8 -578.43,339.8 -812.7,369.1 -143.12,27.4 -1206.38,189.7 -1724.75,1329.7 -507.81,1116.9 -293.37,2754.5 887.22,3645.7" /><path
         id="path342"
         style="fill:#000000;fill-opacity:1;fill-rule:nonzero;stroke:none"
         d="m 8729.91,9726.8 c -244.72,0 -436.56,79.4 -530.48,172.4 -201.13,199.2 -469.76,321.1 -798.39,362.1 l -17.32,3.2 c -455.35,83.8 -1285.16,369.4 -1726.84,1340.8 -276.92,609.1 -351.3,1343.2 -204.09,2014.2 116.19,529.6 422.68,1266.7 1222.97,1770.9 11.54,7.3 26.75,3.8 34.03,-7.7 7.26,-11.5 3.8,-26.8 -7.72,-34 -1310.32,-825.6 -1537.56,-2541.3 -1000.28,-3722.9 432.42,-951.1 1244.98,-1230.7 1690.85,-1312.8 l 16.1,-3 c 338.11,-42.2 616.36,-168.7 825.41,-375.8 106.02,-105 350.43,-190.7 658.37,-146.2 272.23,131.6 382.13,324.9 326.62,574.5 -16.9,76.1 -85.62,130.6 -159.7,126.6 -519.91,-27.2 -878.49,-14 -1065.7,39.3 -487.81,138.9 -1124.04,697.2 -1309.16,1148.8 -243.78,594.6 -111.88,1290.5 361.87,1909.2 8.31,10.8 23.8,12.8 34.59,4.5 10.81,-8.2 12.87,-23.7 4.59,-34.6 -462.81,-604.3 -592.34,-1282.4 -355.4,-1860.4 177.17,-432.2 809.71,-987 1277.02,-1120.1 182,-51.8 535.13,-64.4 1049.61,-37.4 97.49,5.1 188.37,-65.9 210.44,-165.2 42.2,-189.8 14.55,-453.4 -356.82,-631.3 -2.22,-1.1 -4.61,-1.9 -7.06,-2.2 -60.18,-8.9 -118.21,-12.9 -173.51,-12.9" /><path
         id="path344"
         style="fill:#000000;fill-opacity:1;fill-rule:nonzero;stroke:none"
         d="m 9414.67,12386.7 c 253.64,137.7 439.79,161.1 674.63,133 25.8,-3.1 42,-29.4 32.6,-53.7 -128.01,-329.9 -200.33,-485.3 -321.73,-592 -43.62,-38.4 -110.64,-32.2 -146.19,13.7 l -270.72,349.6 c -37.76,48.8 -22.82,120 31.41,149.4" /><path
         id="path346"
         style="fill:#000000;fill-opacity:1;fill-rule:nonzero;stroke:none"
         d="m 7914.56,11911.6 c -264.52,195.9 -365.83,364.5 -424.92,595.7 -6.51,25.4 18.54,49.2 51.21,48 444.58,-15.7 658.63,-34.4 834.01,-115.2 63.01,-29 82.05,-94.4 41.25,-142.7 l -310.72,-367.8 c -43.34,-51.3 -134.28,-59.9 -190.83,-18" /><path
         id="path348"
         style="fill:#000000;fill-opacity:1;fill-rule:nonzero;stroke:none"
         d="m 8106.74,12168.9 c -105.64,236.7 -113.4,405 -71.53,613.1 4.61,22.9 29.39,35.5 50.49,25.4 287.17,-138 421.49,-213.7 508.72,-329.9 31.34,-41.8 21.02,-101.3 -22.71,-129.9 l -333.06,-217.4 c -46.45,-30.4 -109.32,-11.9 -131.91,38.7" /><path
         id="path350"
         style="fill:#ffffff;fill-opacity:1;fill-rule:nonzero;stroke:none"
         d="m 9687.86,11838 c -122.1,-74.4 -281.45,-35.8 -355.92,86.1 -74.47,121.9 -35.85,281 86.25,355.3 122.1,74.4 281.45,35.8 355.92,-86.1 74.46,-121.9 35.85,-281 -86.25,-355.3" /><path
         id="path352"
         style="fill:#000000;fill-opacity:1;fill-rule:nonzero;stroke:none"
         d="m 9552.64,12292.5 c -41.57,0 -83.61,-11 -121.62,-34.1 -53.45,-32.6 -90.99,-83.9 -105.71,-144.7 -14.71,-60.7 -4.87,-123.5 27.69,-176.7 67.27,-110.2 211.71,-145.1 322.03,-77.9 53.45,32.5 90.99,83.9 105.72,144.6 14.69,60.7 4.86,123.5 -27.7,176.8 -44.08,72.2 -121.35,112 -200.41,112 z m 0.86,-516.9 c -95.71,0 -189.23,48.2 -242.61,135.6 -39.44,64.6 -51.34,140.6 -33.53,214.1 17.82,73.6 63.28,135.8 128,175.2 133.52,81.3 308.38,39 389.81,-94.3 39.42,-64.6 51.33,-140.6 33.53,-214.1 -17.83,-73.6 -63.29,-135.8 -128.01,-175.2 -45.99,-28 -96.9,-41.3 -147.19,-41.3" /><path
         id="path354"
         style="fill:#ffffff;fill-opacity:1;fill-rule:nonzero;stroke:none"
         d="m 9728.72,11451.9 c -122.09,-74.4 -281.45,-35.8 -355.91,86.1 -74.47,121.9 -35.85,281 86.25,355.3 122.1,74.4 281.45,35.8 355.91,-86.1 74.47,-121.9 35.86,-281 -86.25,-355.3" /><path
         id="path356"
         style="fill:#000000;fill-opacity:1;fill-rule:nonzero;stroke:none"
         d="m 9728.73,11451.9 h 0.24 z m -135.23,454.5 c -41.56,0 -83.61,-11 -121.62,-34.1 -53.44,-32.6 -90.99,-84 -105.71,-144.7 -14.7,-60.7 -4.87,-123.5 27.7,-176.8 67.25,-110.1 211.72,-145 322.03,-77.8 53.45,32.5 90.98,83.9 105.71,144.6 14.7,60.7 4.86,123.5 -27.7,176.8 -44.09,72.1 -121.35,112 -200.41,112 z m 0.86,-516.9 c -95.71,0 -189.23,48.2 -242.61,135.6 -39.43,64.6 -51.34,140.6 -33.53,214.1 17.82,73.6 63.28,135.8 128.01,175.2 133.49,81.3 308.35,39 389.79,-94.3 39.43,-64.6 51.34,-140.6 33.54,-214.1 -17.83,-73.5 -63.28,-135.8 -128,-175.2 -45.99,-28 -96.9,-41.3 -147.2,-41.3" /><path
         id="path358"
         style="fill:#ffffff;fill-opacity:1;fill-rule:nonzero;stroke:none"
         d="m 9977.92,11646.9 c -122.1,-74.4 -281.45,-35.8 -355.91,86.1 -74.47,121.9 -35.86,281 86.24,355.3 122.1,74.4 281.45,35.8 355.95,-86.1 74.4,-121.9 35.8,-281 -86.28,-355.3" /><path
         id="path360"
         style="fill:#000000;fill-opacity:1;fill-rule:nonzero;stroke:none"
         d="m 9977.92,11646.9 h 0.25 z m -135.22,454.5 c -41.56,0 -83.61,-11 -121.62,-34.1 -53.45,-32.6 -90.99,-84 -105.71,-144.7 -14.7,-60.7 -4.87,-123.5 27.69,-176.8 67.25,-110.1 211.72,-145 322.04,-77.8 53.4,32.5 91,83.9 105.7,144.6 14.7,60.7 4.9,123.5 -27.7,176.8 -44.08,72.1 -121.34,112 -200.4,112 z m 0.85,-516.9 c -95.7,0 -189.22,48.2 -242.6,135.6 -39.43,64.6 -51.34,140.6 -33.54,214.1 17.83,73.6 63.29,135.8 128.01,175.2 133.52,81.3 308.38,39 389.78,-94.3 39.5,-64.6 51.4,-140.6 33.6,-214.1 -17.9,-73.6 -63.3,-135.8 -128.04,-175.2 -45.99,-28 -96.9,-41.3 -147.21,-41.3" /><path
         id="path362"
         style="fill:#ffffff;fill-opacity:1;fill-rule:nonzero;stroke:none"
         d="m 8574.05,12400.8 c 116.18,-83.2 142.75,-244.8 59.34,-360.8 -83.41,-115.9 -245.21,-142.5 -361.38,-59.2 -116.18,83.3 -142.74,244.8 -59.33,360.8 83.4,116 245.2,142.5 361.37,59.2" /><path
         id="path364"
         style="fill:#000000;fill-opacity:1;fill-rule:nonzero;stroke:none"
         d="m 8423.33,12424.6 c -72.97,0 -144.92,-33.8 -190.63,-97.4 -36.47,-50.7 -50.99,-112.6 -40.87,-174.2 10.13,-61.7 43.71,-115.7 94.55,-152.1 104.97,-75.2 251.64,-51.2 326.98,53.5 36.47,50.8 50.99,112.7 40.87,174.3 -10.13,61.6 -43.7,115.6 -94.55,152.1 -41.28,29.6 -89.03,43.8 -136.35,43.8 z m -0.67,-516.9 c -57.27,0 -115.05,17.3 -165.02,53.1 -61.57,44.1 -102.24,109.5 -114.5,184.2 -12.26,74.6 5.33,149.6 49.5,211 91.21,126.8 268.78,156 395.78,64.9 61.57,-44.1 102.23,-109.6 114.5,-184.2 12.26,-74.7 -5.33,-149.6 -49.5,-211.1 -55.34,-76.9 -142.44,-117.9 -230.76,-117.9" /><path
         id="path366"
         style="fill:#ffffff;fill-opacity:1;fill-rule:nonzero;stroke:none"
         d="m 8914.24,12589 c 116.18,-83.3 142.75,-244.9 59.33,-360.9 -83.4,-115.9 -245.2,-142.5 -361.37,-59.2 -116.18,83.3 -142.74,244.8 -59.33,360.8 83.4,116 245.2,142.5 361.37,59.3" /><path
         id="path368"
         style="fill:#000000;fill-opacity:1;fill-rule:nonzero;stroke:none"
         d="m 8763.53,12612.7 c -72.97,0 -144.93,-33.8 -190.64,-97.4 -36.47,-50.7 -50.99,-112.6 -40.87,-174.2 10.12,-61.7 43.71,-115.7 94.55,-152.1 104.96,-75.3 251.65,-51.2 326.98,53.6 36.47,50.7 50.99,112.5 40.87,174.1 -10.12,61.7 -43.7,115.8 -94.55,152.2 -41.28,29.6 -89.02,43.8 -136.34,43.8 z m -0.68,-516.9 c -57.28,0 -115.04,17.2 -165.02,53.1 -61.58,44.1 -102.24,109.5 -114.5,184.2 -12.25,74.7 5.33,149.6 49.5,211 91.22,126.9 268.76,156 395.78,64.9 61.58,-44.1 102.25,-109.6 114.5,-184.3 12.25,-74.6 -5.32,-149.5 -49.5,-211 -55.32,-76.9 -142.44,-117.9 -230.76,-117.9" /><path
         id="path370"
         style="fill:#ffffff;fill-opacity:1;fill-rule:nonzero;stroke:none"
         d="m 8637.24,12742 c 116.17,-83.2 142.73,-244.8 59.33,-360.8 -83.41,-116 -245.2,-142.5 -361.38,-59.2 -116.18,83.3 -142.74,244.8 -59.33,360.8 83.4,116 245.2,142.5 361.38,59.2" /><path
         id="path372"
         style="fill:#000000;fill-opacity:1;fill-rule:nonzero;stroke:none"
         d="m 8486.52,12765.8 c -72.98,0 -144.92,-33.8 -190.64,-97.4 -36.47,-50.7 -50.99,-112.6 -40.87,-174.2 10.12,-61.7 43.71,-115.7 94.55,-152.2 104.97,-75.2 251.64,-51.2 326.98,53.6 36.47,50.8 50.99,112.6 40.87,174.3 -10.13,61.6 -43.7,115.6 -94.55,152.1 -41.28,29.6 -89.03,43.8 -136.34,43.8 z m -0.71,-516.9 c -57.25,0 -115.02,17.2 -164.99,53 -61.58,44.2 -102.25,109.6 -114.5,184.3 -12.25,74.6 5.33,149.6 49.5,211 91.2,126.8 268.74,156 395.78,64.9 61.57,-44.1 102.24,-109.6 114.5,-184.2 12.26,-74.7 -5.32,-149.6 -49.5,-211.1 -55.34,-76.9 -142.45,-117.9 -230.79,-117.9" /><path
         id="path374"
         style="fill:#ffffff;fill-opacity:1;fill-rule:nonzero;stroke:none"
         d="m 8135.34,12023.3 c 0,-142.8 -115.94,-258.6 -258.95,-258.6 -143.02,0 -258.96,115.8 -258.96,258.6 0,142.7 115.94,258.5 258.96,258.5 143.01,0 258.95,-115.8 258.95,-258.5" /><path
         id="path376"
         style="fill:#000000;fill-opacity:1;fill-rule:nonzero;stroke:none"
         d="m 7876.38,12257.1 c -129.18,0 -234.28,-104.9 -234.28,-233.8 0,-129 105.1,-233.9 234.28,-233.9 129.19,0 234.28,104.9 234.28,233.9 0,128.9 -105.09,233.8 -234.28,233.8 z m 0,-517.1 c -156.39,0 -283.62,127.1 -283.62,283.3 0,156.1 127.23,283.2 283.62,283.2 156.4,0 283.62,-127.1 283.62,-283.2 0,-156.2 -127.22,-283.3 -283.62,-283.3" /><path
         id="path378"
         style="fill:#ffffff;fill-opacity:1;fill-rule:nonzero;stroke:none"
         d="m 8486.78,11857.1 c 0,-142.8 -115.94,-258.6 -258.95,-258.6 -143.02,0 -258.96,115.8 -258.96,258.6 0,142.7 115.94,258.5 258.96,258.5 143.01,0 258.95,-115.8 258.95,-258.5" /><path
         id="path380"
         style="fill:#000000;fill-opacity:1;fill-rule:nonzero;stroke:none"
         d="m 8227.83,12090.9 c -129.19,0 -234.29,-104.9 -234.29,-233.9 0,-128.9 105.1,-233.8 234.29,-233.8 129.18,0 234.28,104.9 234.28,233.8 0,129 -105.1,233.9 -234.28,233.9 z m 0,-517.1 c -156.4,0 -283.63,127.1 -283.63,283.2 0,156.2 127.23,283.3 283.63,283.3 156.39,0 283.62,-127.1 283.62,-283.3 0,-156.1 -127.23,-283.2 -283.62,-283.2" /><path
         id="path382"
         style="fill:#ffffff;fill-opacity:1;fill-rule:nonzero;stroke:none"
         d="m 8449.79,12171 c 0,-142.8 -115.94,-258.5 -258.96,-258.5 -143.01,0 -258.95,115.7 -258.95,258.5 0,142.8 115.94,258.5 258.95,258.5 143.02,0 258.96,-115.7 258.96,-258.5" /><path
         id="path384"
         style="fill:#000000;fill-opacity:1;fill-rule:nonzero;stroke:none"
         d="m 8190.83,12404.9 c -129.18,0 -234.28,-105 -234.28,-233.9 0,-129 105.1,-233.9 234.28,-233.9 129.18,0 234.29,104.9 234.29,233.9 0,128.9 -105.11,233.9 -234.29,233.9 z m 0,-517.1 c -156.39,0 -283.62,127 -283.62,283.2 0,156.1 127.23,283.2 283.62,283.2 156.4,0 283.62,-127.1 283.62,-283.2 0,-156.2 -127.22,-283.2 -283.62,-283.2" /><path
         id="path386"
         style="fill:#ffffff;fill-opacity:1;fill-rule:nonzero;stroke:none"
         d="m 9198.31,12141.9 c -134.88,-47.5 -282.77,23.2 -330.32,157.8 -47.55,134.7 23.25,282.4 158.13,329.8 134.89,47.5 282.77,-23.2 330.32,-157.9 47.55,-134.6 -23.25,-282.3 -158.13,-329.7" /><path
         id="path388"
         style="fill:#000000;fill-opacity:1;fill-rule:nonzero;stroke:none"
         d="m 9112,12619.6 c -25.8,0 -52,-4.3 -77.68,-13.4 -59.03,-20.7 -106.41,-63.2 -133.43,-119.5 -27.01,-56.4 -30.44,-119.9 -9.63,-178.8 42.95,-121.6 177.04,-185.6 298.86,-142.8 59.07,20.8 106.47,63.3 133.48,119.7 26.96,56.3 30.35,119.8 9.58,178.6 -33.9,96 -124.57,156.2 -221.18,156.2 z m 0.49,-517.1 c -116.96,0 -226.71,72.8 -267.75,189 -25.2,71.4 -21.06,148.3 11.66,216.5 32.72,68.2 90.07,119.6 161.53,144.8 147.5,51.9 309.76,-25.7 361.77,-172.9 25.17,-71.3 21.06,-148.2 -11.59,-216.4 -32.71,-68.3 -90.1,-119.7 -161.61,-144.9 -31.07,-11 -62.79,-16.1 -94.01,-16.1" /><path
         id="path390"
         style="fill:#ffffff;fill-opacity:1;fill-rule:nonzero;stroke:none"
         d="m 9158.15,11755.7 c -134.88,-47.5 -282.77,23.2 -330.32,157.9 -47.55,134.6 23.25,282.3 158.13,329.7 134.88,47.5 282.77,-23.2 330.32,-157.8 47.55,-134.7 -23.25,-282.3 -158.13,-329.8" /><path
         id="path392"
         style="fill:#000000;fill-opacity:1;fill-rule:nonzero;stroke:none"
         d="m 9071.84,12233.4 c -25.81,0 -52,-4.3 -77.69,-13.3 -59.02,-20.8 -106.4,-63.3 -133.42,-119.6 -27.01,-56.4 -30.44,-119.8 -9.63,-178.7 42.94,-121.7 176.99,-185.7 298.86,-142.8 59.07,20.7 106.47,63.2 133.48,119.7 26.96,56.3 30.35,119.7 9.58,178.6 -33.9,95.9 -124.57,156.1 -221.18,156.1 z m 0.45,-517.1 c -116.93,0 -226.68,72.8 -267.72,189 -25.2,71.4 -21.05,148.3 11.66,216.5 32.72,68.2 90.09,119.7 161.54,144.8 147.47,52 309.78,-25.6 361.77,-172.9 25.17,-71.3 21.06,-148.1 -11.59,-216.3 -32.71,-68.4 -90.1,-119.8 -161.61,-145 -31.08,-10.9 -62.82,-16.1 -94.05,-16.1" /><path
         id="path394"
         style="fill:#ffffff;fill-opacity:1;fill-rule:nonzero;stroke:none"
         d="m 9442.41,11894.9 c -134.88,-47.5 -282.77,23.2 -330.32,157.9 -47.55,134.6 23.25,282.3 158.13,329.8 134.89,47.4 282.77,-23.3 330.32,-157.9 47.55,-134.7 -23.25,-282.3 -158.13,-329.8" /><path
         id="path396"
         style="fill:#000000;fill-opacity:1;fill-rule:nonzero;stroke:none"
         d="m 9356.1,12372.6 c -25.8,0 -52,-4.3 -77.68,-13.3 -59.03,-20.8 -106.41,-63.3 -133.43,-119.6 -27.02,-56.4 -30.43,-119.8 -9.64,-178.7 42.96,-121.6 177.02,-185.7 298.87,-142.8 59.06,20.8 106.46,63.2 133.47,119.7 26.97,56.3 30.37,119.7 9.58,178.6 -33.89,96 -124.56,156.1 -221.17,156.1 z m 0.5,-517.1 c -116.96,0 -226.72,72.8 -267.78,189.1 -25.18,71.3 -21.04,148.2 11.68,216.4 32.71,68.2 90.09,119.7 161.54,144.8 147.49,51.9 309.77,-25.6 361.76,-172.9 25.17,-71.3 21.05,-148.1 -11.6,-216.3 -32.71,-68.3 -90.09,-119.8 -161.6,-145 -31.06,-10.9 -62.79,-16.1 -94,-16.1" /><path
         id="path398"
         style="fill:#ffffff;fill-opacity:1;fill-rule:nonzero;stroke:none"
         d="m 8764.23,11875.5 c 0,-142.8 -115.93,-258.5 -258.95,-258.5 -143.02,0 -258.96,115.7 -258.96,258.5 0,142.8 115.94,258.6 258.96,258.6 143.02,0 258.95,-115.8 258.95,-258.6" /><path
         id="path400"
         style="fill:#000000;fill-opacity:1;fill-rule:nonzero;stroke:none"
         d="m 8505.28,12109.4 c -129.18,0 -234.28,-104.9 -234.28,-233.9 0,-128.9 105.1,-233.8 234.28,-233.8 129.18,0 234.28,104.9 234.28,233.8 0,129 -105.1,233.9 -234.28,233.9 z m 0,-517.1 c -156.39,0 -283.62,127.1 -283.62,283.2 0,156.2 127.23,283.2 283.62,283.2 156.39,0 283.62,-127 283.62,-283.2 0,-156.1 -127.23,-283.2 -283.62,-283.2" /><path
         id="path402"
         style="fill:#ffffff;fill-opacity:1;fill-rule:nonzero;stroke:none"
         d="m 9115.67,11709.3 c 0,-142.8 -115.93,-258.5 -258.95,-258.5 -143.02,0 -258.96,115.7 -258.96,258.5 0,142.8 115.94,258.6 258.96,258.6 143.02,0 258.95,-115.8 258.95,-258.6" /><path
         id="path404"
         style="fill:#000000;fill-opacity:1;fill-rule:nonzero;stroke:none"
         d="m 8856.72,11943.2 c -129.19,0 -234.29,-104.9 -234.29,-233.9 0,-128.9 105.1,-233.9 234.29,-233.9 129.18,0 234.29,105 234.29,233.9 0,129 -105.11,233.9 -234.29,233.9 z m 0,-517.1 c -156.39,0 -283.63,127 -283.63,283.2 0,156.2 127.24,283.2 283.63,283.2 156.39,0 283.63,-127 283.63,-283.2 0,-156.2 -127.24,-283.2 -283.63,-283.2" /><path
         id="path406"
         style="fill:#ffffff;fill-opacity:1;fill-rule:nonzero;stroke:none"
         d="m 9078.68,12023.3 c 0,-142.8 -115.94,-258.6 -258.96,-258.6 -143.01,0 -258.95,115.8 -258.95,258.6 0,142.7 115.94,258.5 258.95,258.5 143.02,0 258.96,-115.8 258.96,-258.5" /><path
         id="path408"
         style="fill:#000000;fill-opacity:1;fill-rule:nonzero;stroke:none"
         d="m 8819.73,12257.1 c -129.19,0 -234.3,-104.9 -234.3,-233.8 0,-129 105.11,-233.9 234.3,-233.9 129.18,0 234.28,104.9 234.28,233.9 0,128.9 -105.1,233.8 -234.28,233.8 z m 0,-517.1 c -156.4,0 -283.64,127.1 -283.64,283.3 0,156.1 127.24,283.2 283.64,283.2 156.39,0 283.62,-127.1 283.62,-283.2 0,-156.2 -127.23,-283.3 -283.62,-283.3" /><path
         id="path410"
         style="fill:#ffffff;fill-opacity:1;fill-rule:nonzero;stroke:none"
         d="m 9281.41,11722.6 c -40.05,-137.1 -183.81,-215.8 -321.11,-175.8 -137.3,40 -216.14,183.5 -176.09,320.6 40.04,137.1 183.81,215.8 321.11,175.8 137.29,-40 216.13,-183.5 176.09,-320.6" /><path
         id="path412"
         style="fill:#000000;fill-opacity:1;fill-rule:nonzero;stroke:none"
         d="m 9032.89,12028.9 c -101.46,0 -195.19,-66.4 -225,-168.4 -17.52,-60 -10.61,-123.2 19.49,-177.9 30.09,-54.8 79.74,-94.6 139.82,-112.1 124.03,-36.2 254.36,35.2 290.52,159 17.51,60 10.6,123.2 -19.48,177.9 -30.09,54.8 -79.74,94.6 -139.82,112.1 -21.82,6.4 -43.86,9.4 -65.53,9.4 z m -0.19,-517.2 c -26.24,0 -52.87,3.7 -79.3,11.4 -72.72,21.2 -132.84,69.4 -169.27,135.7 -36.44,66.3 -44.82,142.9 -23.61,215.5 43.8,149.9 201.5,236.4 351.7,192.6 72.72,-21.2 132.84,-69.4 169.27,-135.7 36.42,-66.3 44.81,-142.9 23.6,-215.5 -36.08,-123.5 -149.57,-204 -272.39,-204" /><path
         id="path414"
         style="fill:#ffffff;fill-opacity:1;fill-rule:nonzero;stroke:none"
         d="m 9572.17,11464.8 c -40.04,-137.1 -183.81,-215.8 -321.1,-175.8 -137.3,40 -216.13,183.5 -176.09,320.6 40.04,137.1 183.81,215.8 321.1,175.8 137.3,-40 216.14,-183.5 176.09,-320.6" /><path
         id="path416"
         style="fill:#000000;fill-opacity:1;fill-rule:nonzero;stroke:none"
         d="m 9323.65,11771.1 c -101.46,0 -195.18,-66.4 -224.98,-168.4 -17.53,-60 -10.6,-123.2 19.47,-177.9 30.1,-54.8 79.75,-94.6 139.83,-112.1 124.06,-36.1 254.35,35.2 290.52,159 17.53,60 10.6,123.2 -19.48,177.9 -30.09,54.8 -79.75,94.6 -139.82,112.1 -21.83,6.4 -43.87,9.4 -65.54,9.4 z m -0.21,-517.1 c -26.22,0 -52.85,3.6 -79.26,11.3 -72.73,21.2 -132.85,69.4 -169.28,135.7 -36.44,66.4 -44.82,142.9 -23.6,215.5 43.78,149.9 201.41,236.4 351.68,192.6 72.73,-21.2 132.84,-69.4 169.28,-135.7 36.43,-66.3 44.81,-142.9 23.59,-215.5 -36.09,-123.5 -149.59,-203.9 -272.41,-203.9" /><path
         id="path418"
         style="fill:#ffffff;fill-opacity:1;fill-rule:nonzero;stroke:none"
         d="m 9624.71,11776.5 c -40.05,-137 -183.81,-215.8 -321.11,-175.8 -137.3,40 -216.13,183.5 -176.09,320.6 40.04,137.1 183.81,215.8 321.11,175.8 137.29,-40 216.13,-183.5 176.09,-320.6" /><path
         id="path420"
         style="fill:#000000;fill-opacity:1;fill-rule:nonzero;stroke:none"
         d="m 9376.2,12082.8 c -101.48,0 -195.2,-66.4 -225,-168.4 -17.53,-60 -10.6,-123.2 19.48,-177.9 30.09,-54.8 79.74,-94.6 139.83,-112.1 124.05,-36.1 254.35,35.2 290.51,159 17.52,60 10.6,123.2 -19.48,178 -30.09,54.7 -79.74,94.5 -139.82,112 -21.82,6.4 -43.87,9.4 -65.52,9.4 z m -0.22,-517.1 c -26.23,0 -52.86,3.7 -79.27,11.3 -72.73,21.2 -132.85,69.4 -169.28,135.7 -36.44,66.4 -44.82,142.9 -23.6,215.5 43.78,150 201.53,236.4 351.69,192.6 72.72,-21.2 132.84,-69.4 169.26,-135.7 36.44,-66.3 44.83,-142.9 23.6,-215.5 -36.09,-123.5 -149.57,-203.9 -272.4,-203.9" /><path
         id="path422"
         style="fill:#ffffff;fill-opacity:1;fill-rule:nonzero;stroke:none"
         d="m 8245.58,11519.5 c -40.04,-137.1 -183.8,-215.8 -321.1,-175.8 -137.3,39.9 -216.14,183.5 -176.09,320.6 40.04,137 183.81,215.7 321.1,175.8 137.3,-40 216.14,-183.6 176.09,-320.6" /><path
         id="path424"
         style="fill:#000000;fill-opacity:1;fill-rule:nonzero;stroke:none"
         d="m 8245.58,11519.5 h 0.24 z m -248.51,306.2 c -101.46,0 -195.19,-66.3 -225,-168.4 -17.52,-59.9 -10.61,-123.1 19.49,-177.9 30.09,-54.7 79.74,-94.5 139.83,-112.1 124.03,-36 254.35,35.3 290.51,159.1 17.51,59.9 10.6,123.1 -19.48,177.9 -30.09,54.8 -79.74,94.6 -139.82,112.1 -21.82,6.3 -43.85,9.3 -65.53,9.3 z m -0.21,-517.1 c -26.23,0 -52.86,3.7 -79.27,11.4 -72.73,21.2 -132.85,69.3 -169.28,135.7 -36.44,66.3 -44.82,142.8 -23.61,215.5 43.79,149.9 201.53,236.4 351.7,192.5 72.72,-21.1 132.84,-69.3 169.26,-135.7 36.43,-66.3 44.82,-142.8 23.6,-215.5 -36.09,-123.5 -149.57,-203.9 -272.4,-203.9" /><path
         id="path426"
         style="fill:#ffffff;fill-opacity:1;fill-rule:nonzero;stroke:none"
         d="m 8536.35,11261.7 c -40.04,-137.1 -183.81,-215.8 -321.1,-175.8 -137.3,39.9 -216.13,183.5 -176.09,320.6 40.04,137 183.81,215.7 321.1,175.8 137.3,-40 216.14,-183.6 176.09,-320.6" /><path
         id="path428"
         style="fill:#000000;fill-opacity:1;fill-rule:nonzero;stroke:none"
         d="m 8287.86,11568 c -101.47,0 -195.21,-66.4 -225.02,-168.5 -17.52,-59.9 -10.6,-123.1 19.48,-177.9 30.09,-54.7 79.74,-94.5 139.83,-112.1 124.05,-36 254.35,35.3 290.52,159.1 17.52,60 10.6,123.1 -19.49,177.9 -30.08,54.8 -79.74,94.6 -139.82,112.1 -21.82,6.3 -43.84,9.4 -65.5,9.4 z m -0.25,-517.2 c -26.21,0 -52.84,3.7 -79.25,11.4 -72.74,21.1 -132.86,69.4 -169.28,135.7 -36.44,66.3 -44.83,142.8 -23.6,215.5 43.8,149.9 201.55,236.2 351.67,192.5 72.73,-21.1 132.85,-69.3 169.28,-135.7 36.44,-66.3 44.82,-142.8 23.6,-215.4 -36.09,-123.6 -149.59,-204 -272.42,-204" /><path
         id="path430"
         style="fill:#ffffff;fill-opacity:1;fill-rule:nonzero;stroke:none"
         d="m 8588.88,11573.4 c -40.04,-137.1 -183.8,-215.8 -321.1,-175.8 -137.3,40 -216.13,183.5 -176.09,320.6 40.04,137.1 183.81,215.8 321.1,175.8 137.3,-40 216.14,-183.5 176.09,-320.6" /><path
         id="path432"
         style="fill:#000000;fill-opacity:1;fill-rule:nonzero;stroke:none"
         d="m 8340.39,11879.7 c -101.47,0 -195.21,-66.4 -225.01,-168.4 -17.53,-60 -10.61,-123.2 19.47,-177.9 30.1,-54.8 79.75,-94.6 139.83,-112.1 124.05,-36.1 254.35,35.2 290.51,159 17.53,60 10.61,123.1 -19.47,177.9 -30.09,54.8 -79.74,94.6 -139.83,112.1 -21.82,6.4 -43.83,9.4 -65.5,9.4 z m -0.23,-517.2 c -26.23,0 -52.87,3.7 -79.27,11.4 -72.73,21.2 -132.85,69.4 -169.28,135.7 -36.44,66.3 -44.82,142.9 -23.6,215.5 43.79,149.9 201.61,236.3 351.67,192.6 72.74,-21.2 132.86,-69.4 169.28,-135.7 36.44,-66.4 44.83,-142.9 23.6,-215.5 -36.09,-123.6 -149.57,-204 -272.4,-204" /><path
         id="path434"
         style="fill:#ffffff;fill-opacity:1;fill-rule:nonzero;stroke:none"
         d="m 8856.72,11450.8 c 0,-142.8 -115.94,-258.6 -258.96,-258.6 -143.01,0 -258.95,115.8 -258.95,258.6 0,142.8 115.94,258.5 258.95,258.5 143.02,0 258.96,-115.7 258.96,-258.5" /><path
         id="path436"
         style="fill:#000000;fill-opacity:1;fill-rule:nonzero;stroke:none"
         d="m 8597.76,11684.6 c -129.19,0 -234.28,-104.9 -234.28,-233.8 0,-129 105.09,-233.9 234.28,-233.9 129.19,0 234.29,104.9 234.29,233.9 0,128.9 -105.1,233.8 -234.29,233.8 z m 0,-517 c -156.39,0 -283.62,127 -283.62,283.2 0,156.1 127.23,283.2 283.62,283.2 156.39,0 283.63,-127.1 283.63,-283.2 0,-156.2 -127.24,-283.2 -283.63,-283.2" /><path
         id="path438"
         style="fill:#ffffff;fill-opacity:1;fill-rule:nonzero;stroke:none"
         d="m 9208.16,11284.6 c 0,-142.8 -115.94,-258.6 -258.96,-258.6 -143.01,0 -258.96,115.8 -258.96,258.6 0,142.8 115.95,258.5 258.96,258.5 143.02,0 258.96,-115.7 258.96,-258.5" /><path
         id="path440"
         style="fill:#000000;fill-opacity:1;fill-rule:nonzero;stroke:none"
         d="m 8949.2,11518.4 c -129.18,0 -234.28,-104.9 -234.28,-233.8 0,-129 105.1,-233.9 234.28,-233.9 129.18,0 234.28,104.9 234.28,233.9 0,128.9 -105.1,233.8 -234.28,233.8 z m 0,-517 c -156.39,0 -283.62,127 -283.62,283.2 0,156.1 127.23,283.2 283.62,283.2 156.39,0 283.62,-127.1 283.62,-283.2 0,-156.2 -127.23,-283.2 -283.62,-283.2" /><path
         id="path442"
         style="fill:#ffffff;fill-opacity:1;fill-rule:nonzero;stroke:none"
         d="m 9171.16,11598.5 c 0,-142.8 -115.94,-258.5 -258.95,-258.5 -143.02,0 -258.96,115.7 -258.96,258.5 0,142.8 115.94,258.6 258.96,258.6 143.01,0 258.95,-115.8 258.95,-258.6" /><path
         id="path444"
         style="fill:#000000;fill-opacity:1;fill-rule:nonzero;stroke:none"
         d="m 8912.21,11832.4 c -129.18,0 -234.29,-104.9 -234.29,-233.9 0,-128.9 105.11,-233.9 234.29,-233.9 129.18,0 234.28,105 234.28,233.9 0,129 -105.1,233.9 -234.28,233.9 z m 0,-517.1 c -156.4,0 -283.63,127 -283.63,283.2 0,156.2 127.23,283.2 283.63,283.2 156.39,0 283.62,-127 283.62,-283.2 0,-156.2 -127.23,-283.2 -283.62,-283.2" /><path
         id="path446"
         style="fill:#ffffff;fill-opacity:1;fill-rule:nonzero;stroke:none"
         d="M 9712.19,11427.7 C 9087.1,11227.1 8691.74,11187.2 7881,11326.1 c -166.42,-22.7 -322.75,-115.8 -474.72,-239.3 -22.6,-18.4 -3.73,-54.3 24.54,-47.2 119.16,30.1 277.25,45.9 529.49,27.1 392.36,-155.8 688.67,-307.1 739.04,-446.9 h -9.11 l 26.62,-94.8 c 165.51,-12.7 152.78,19 356.48,12.7 l 5.31,82.1 c 34.95,110.8 244.48,266.1 523.23,435.2 116.26,67.3 221.4,211.3 572.32,252.9 28.1,3.4 33.4,42.4 7.2,53.2 -180.4,74.6 -342.2,108.6 -469.21,66.6" /><path
         id="path448"
         style="fill:#000000;fill-opacity:1;fill-rule:nonzero;stroke:none"
         d="m 9712.19,11427.7 h 0.24 z m -976.27,-879.3 c 69.37,-4.4 103.71,0.1 143.02,5.2 39.82,5.1 84.67,11 171.31,9.3 l 3.65,56.3 c -0.07,2.7 0.29,5.4 1.12,8 33.29,105.5 202.99,248.1 534.08,448.9 25.8,14.9 50.56,33.4 79.23,54.8 95.32,71.2 225.85,168.7 502.97,201.6 0.9,0.1 2.1,0.2 2.4,2.5 0.3,2.5 -0.8,2.9 -1.7,3.3 -194.91,80.6 -342.81,102.2 -452.05,66 -0.07,0 -0.15,-0.1 -0.22,-0.1 -665.76,-213.7 -1061.72,-235.9 -1839.12,-103 -142.02,-20.4 -287.92,-94.6 -458.76,-233.6 -0.93,-0.7 -1.27,-1 -0.55,-2.5 1.11,-2.2 2.53,-1.8 3.49,-1.5 141.4,35.6 312.17,44.5 537.35,27.7 2.49,-0.2 4.95,-0.7 7.27,-1.7 473.64,-188.1 705.92,-330.4 753.16,-461.5 2.67,-7.4 1.62,-15.7 -2.81,-22.2 z m 51.44,-51.1 c -20.32,0 -43.87,0.9 -72.39,3.1 -10.32,0.8 -19.05,7.9 -21.86,17.9 l -26.62,94.8 c -1.59,5.7 -1.08,11.6 1.31,16.9 -58.58,109.9 -292.48,245.1 -713.08,412.4 -217.9,15.9 -382.52,7.5 -517.86,-26.7 -24.05,-6.1 -48.58,5.2 -59.66,27.3 -11.06,22.1 -5.63,47.3 13.52,62.9 179.66,146.1 334.39,223.8 486.94,244.7 2.48,0.3 5.03,0.3 7.51,-0.2 845.13,-144.8 1228.56,-88.9 1819.39,100.8 121.01,40 280.08,17.9 486.34,-67.3 22.2,-9.2 35,-31.6 31.7,-55.6 -3.3,-24 -21.6,-42 -45.5,-44.8 -263.98,-31.4 -383.35,-120.5 -479.24,-192.1 -28.66,-21.4 -55.74,-41.6 -83.6,-57.8 -307.56,-186.5 -479.63,-327.2 -511.16,-418.2 l -5.13,-79.3 c -0.86,-13.3 -12.28,-23.6 -25.4,-23.1 -98.86,3.1 -145.81,-3 -187.29,-8.3 -28.94,-3.8 -56.84,-7.4 -97.92,-7.4" /></g></g></svg>